<svg xmlns="http://www.w3.org/2000/svg" xmlns:xlink="http://www.w3.org/1999/xlink" width="60" zoomAndPan="magnify" viewBox="0 0 45 44.999999" height="60" preserveAspectRatio="xMidYMid meet" version="1.0"><defs><filter x="0%" y="0%" width="100%" height="100%" id="8738071b39"><feColorMatrix values="0 0 0 0 1 0 0 0 0 1 0 0 0 0 1 0 0 0 1 0" color-interpolation-filters="sRGB"/></filter><mask id="69fa13ac04"><g filter="url(#8738071b39)"><rect x="-4.5" width="54" fill="#000000" y="-4.5" height="53.999999" fill-opacity="0.15"/></g></mask><clipPath id="f637eedb97"><path d="M 0.0976562 0.691406 L 20.46875 0.691406 L 20.46875 21.0625 L 0.0976562 21.0625 Z M 0.0976562 0.691406 " clip-rule="nonzero"/></clipPath><clipPath id="17154921a4"><path d="M 10.28125 0.691406 C 4.660156 0.691406 0.0976562 5.253906 0.0976562 10.878906 C 0.0976562 16.503906 4.660156 21.0625 10.28125 21.0625 C 15.90625 21.0625 20.46875 16.503906 20.46875 10.878906 C 20.46875 5.253906 15.90625 0.691406 10.28125 0.691406 Z M 10.28125 0.691406 " clip-rule="nonzero"/></clipPath><clipPath id="c09fb55a67"><rect x="0" width="21" y="0" height="22"/></clipPath><clipPath id="443d2da7d8"><path d="M 15.859375 12.953125 L 20 12.953125 L 20 18 L 15.859375 18 Z M 15.859375 12.953125 " clip-rule="nonzero"/></clipPath><clipPath id="ed67b53c1b"><path d="M 20 22 L 33 22 L 33 27.203125 L 20 27.203125 Z M 20 22 " clip-rule="nonzero"/></clipPath><clipPath id="b41d191a92"><path d="M 32 23 L 35.359375 23 L 35.359375 27 L 32 27 Z M 32 23 " clip-rule="nonzero"/></clipPath></defs><rect x="-4.5" width="54" fill="#ffffff" y="-4.5" height="53.999999" fill-opacity="1"/><rect x="-4.5" width="54" fill="#ffffff" y="-4.5" height="53.999999" fill-opacity="1"/><g mask="url(#69fa13ac04)"><g transform="matrix(1, 0, 0, 1, 11, 10)"><g clip-path="url(#c09fb55a67)"><g clip-path="url(#f637eedb97)"><g clip-path="url(#17154921a4)"><path fill="#004aad" d="M 0.0976562 0.691406 L 20.46875 0.691406 L 20.46875 21.0625 L 0.0976562 21.0625 Z M 0.0976562 0.691406 " fill-opacity="1" fill-rule="nonzero"/></g></g></g></g></g><path fill="#70b747" d="M 29.21875 23.765625 C 29.203125 23.8125 29.152344 23.835938 29.105469 23.820312 L 20.914062 21.0625 C 20.867188 21.046875 20.84375 20.996094 20.859375 20.949219 L 22.113281 17.285156 C 22.128906 17.238281 22.179688 17.210938 22.226562 17.230469 L 30.414062 19.988281 C 30.460938 20.003906 30.488281 20.054688 30.472656 20.101562 L 29.21875 23.765625 " fill-opacity="1" fill-rule="nonzero"/><path fill="#8dd361" d="M 28.902344 23.300781 C 28.886719 23.339844 28.84375 23.359375 28.800781 23.34375 L 21.449219 20.867188 C 21.40625 20.851562 21.382812 20.808594 21.394531 20.769531 L 22.429688 17.75 C 22.441406 17.710938 22.488281 17.691406 22.527344 17.707031 L 29.882812 20.183594 C 29.921875 20.199219 29.945312 20.242188 29.933594 20.28125 L 28.902344 23.300781 " fill-opacity="1" fill-rule="nonzero"/><path fill="#70b747" d="M 26.730469 20.882812 C 26.53125 21.46875 25.890625 21.78125 25.304688 21.582031 C 24.714844 21.382812 24.402344 20.75 24.601562 20.167969 C 24.800781 19.582031 25.4375 19.269531 26.027344 19.46875 C 26.613281 19.667969 26.929688 20.300781 26.730469 20.882812 " fill-opacity="1" fill-rule="nonzero"/><path fill="#70b747" d="M 22.429688 17.75 L 22.148438 18.570312 C 22.644531 18.734375 23.179688 18.472656 23.347656 17.980469 L 22.527344 17.707031 C 22.488281 17.691406 22.441406 17.710938 22.429688 17.75 " fill-opacity="1" fill-rule="nonzero"/><path fill="#70b747" d="M 21.441406 20.863281 L 22.265625 21.140625 C 22.433594 20.652344 22.171875 20.117188 21.675781 19.953125 L 21.398438 20.765625 C 21.382812 20.804688 21.402344 20.851562 21.441406 20.863281 " fill-opacity="1" fill-rule="nonzero"/><path fill="#70b747" d="M 29.933594 20.28125 L 29.652344 21.097656 C 29.160156 20.933594 28.894531 20.398438 29.0625 19.910156 L 29.882812 20.183594 C 29.921875 20.199219 29.945312 20.242188 29.933594 20.28125 " fill-opacity="1" fill-rule="nonzero"/><path fill="#70b747" d="M 28.808594 23.347656 L 27.984375 23.066406 C 28.152344 22.578125 28.6875 22.316406 29.179688 22.480469 L 28.902344 23.292969 C 28.890625 23.335938 28.847656 23.359375 28.808594 23.347656 " fill-opacity="1" fill-rule="nonzero"/><path fill="#f9aa6c" d="M 26.085938 17.8125 C 26.085938 17.8125 24.566406 15.492188 23.953125 15.160156 C 23.953125 15.160156 22.984375 14.507812 19.035156 13.933594 L 18.351562 15.941406 C 18.351562 15.941406 20.535156 18.101562 20.71875 18.28125 C 20.898438 18.464844 21.628906 18.921875 22.039062 19.058594 C 22.445312 19.199219 24.039062 19.976562 24.039062 19.976562 C 24.039062 19.976562 24.410156 20.101562 24.621094 19.800781 C 24.746094 19.625 24.757812 19.507812 24.660156 19.375 C 24.660156 19.375 24.550781 19.128906 23.027344 18.03125 C 22.554688 17.691406 22.101562 16.769531 22.316406 16.640625 C 22.671875 16.429688 23.113281 16.535156 23.113281 16.535156 L 24.109375 17.1875 L 24.972656 18.15625 L 26.40625 18.636719 C 26.40625 18.636719 26.382812 18.226562 26.085938 17.8125 " fill-opacity="1" fill-rule="nonzero"/><path fill="#f8bd90" d="M 24.089844 19.03125 L 23.683594 19.585938 C 23.683594 19.585938 24.140625 19.933594 24.371094 19.738281 C 24.664062 19.492188 24.378906 19.21875 24.089844 19.03125 " fill-opacity="1" fill-rule="nonzero"/><path fill="#99def2" d="M 18.160156 17.03125 L 19.0625 17.335938 L 20.214844 13.96875 L 19.3125 13.664062 L 18.160156 17.03125 " fill-opacity="1" fill-rule="nonzero"/><g clip-path="url(#443d2da7d8)"><path fill="#354d7f" d="M 18.121094 17.59375 L 15.878906 16.839844 L 17.207031 12.953125 L 19.449219 13.707031 L 18.121094 17.59375 " fill-opacity="1" fill-rule="nonzero"/></g><g clip-path="url(#ed67b53c1b)"><path fill="#f9aa6c" d="M 24.515625 27.148438 C 23.925781 27.097656 20.480469 25.066406 20.480469 25.066406 C 20.480469 25.066406 20.320312 24.476562 21.179688 24.476562 C 22.042969 24.476562 24.355469 25.226562 24.355469 25.226562 L 25.871094 25.078125 C 25.871094 25.078125 25.402344 24.613281 26.019531 24.320312 C 26.523438 24.082031 28.757812 23.152344 29.296875 22.992188 C 29.835938 22.832031 31.828125 23.257812 32.472656 23.632812 L 32.472656 26.039062 C 32.472656 26.039062 25.109375 27.203125 24.515625 27.148438 " fill-opacity="1" fill-rule="nonzero"/></g><path fill="#f8bd90" d="M 26.675781 24.3125 C 26.675781 24.3125 26.785156 24.917969 26.785156 25.058594 C 26.785156 25.058594 25.996094 25.253906 25.996094 24.683594 C 25.996094 24.320312 26.675781 24.3125 26.675781 24.3125 " fill-opacity="1" fill-rule="nonzero"/><path fill="#e89258" d="M 25.871094 25.078125 C 25.871094 25.078125 26.203125 25.34375 26.996094 25.183594 C 26.996094 25.183594 28.382812 24.789062 28.542969 24.703125 C 28.542969 24.703125 29.726562 24.433594 30.390625 24.703125 C 30.390625 24.703125 26.96875 26.054688 25.871094 25.078125 " fill-opacity="1" fill-rule="nonzero"/><path fill="#f8bd90" d="M 21.574219 25.695312 L 21.738281 25.316406 C 21.738281 25.316406 20.894531 24.53125 20.535156 25.097656 C 20.671875 25.179688 21.074219 25.414062 21.574219 25.695312 " fill-opacity="1" fill-rule="nonzero"/><path fill="#99def2" d="M 33.242188 26.414062 L 32.183594 26.414062 L 32.183594 23.242188 L 33.242188 23.242188 L 33.242188 26.414062 " fill-opacity="1" fill-rule="nonzero"/><g clip-path="url(#b41d191a92)"><path fill="#354d7f" d="M 35.34375 26.714844 L 32.957031 26.714844 L 32.957031 23.242188 L 35.34375 23.242188 L 35.34375 26.714844 " fill-opacity="1" fill-rule="nonzero"/></g></svg>