<svg xmlns="http://www.w3.org/2000/svg" xmlns:xlink="http://www.w3.org/1999/xlink" width="60" zoomAndPan="magnify" viewBox="0 0 45 44.999999" height="60" preserveAspectRatio="xMidYMid meet" version="1.0"><path fill="#3f526e" d="M 30.992188 24.625 L 36.230469 26.050781 C 35.527344 28.617188 34.21875 30.820312 32.308594 32.667969 L 28.515625 28.792969 C 29.726562 27.632812 30.550781 26.242188 30.992188 24.625 Z M 30.992188 24.625 " fill-opacity="1" fill-rule="nonzero"/><path fill="#3f7a98" d="M 36.511719 25.890625 L 36.449219 26.113281 C 35.738281 28.71875 34.410156 30.960938 32.464844 32.835938 L 32.421875 32.878906 L 32.234375 32.929688 L 32.136719 32.832031 L 28.183594 28.789062 L 28.351562 28.625 C 29.53125 27.496094 30.335938 26.140625 30.765625 24.566406 L 30.828125 24.34375 Z M 32.3125 32.339844 C 34.046875 30.605469 35.257812 28.5625 35.941406 26.207031 L 31.152344 24.90625 C 30.707031 26.390625 29.933594 27.6875 28.839844 28.789062 Z M 32.3125 32.339844 " fill-opacity="1" fill-rule="nonzero"/><path fill="#3f526e" d="M 28.515625 28.792969 L 32.296875 32.671875 C 30.503906 34.410156 28.402344 35.601562 25.992188 36.246094 L 25.953125 36.246094 L 24.585938 30.996094 C 26.082031 30.601562 27.394531 29.867188 28.515625 28.792969 Z M 28.515625 28.792969 " fill-opacity="1" fill-rule="nonzero"/><path fill="#3f7a98" d="M 32.636719 32.6875 L 32.46875 32.847656 C 30.640625 34.605469 28.503906 35.8125 26.050781 36.46875 L 25.785156 36.539062 L 24.300781 30.84375 L 24.523438 30.785156 C 25.984375 30.394531 27.261719 29.675781 28.355469 28.628906 L 28.519531 28.46875 Z M 26.113281 35.980469 C 28.335938 35.351562 30.292969 34.25 31.980469 32.675781 L 28.507812 29.117188 C 27.449219 30.082031 26.234375 30.765625 24.863281 31.167969 Z M 26.113281 35.980469 " fill-opacity="1" fill-rule="nonzero"/><path fill="#3f526e" d="M 16.152344 28.972656 C 17.304688 30.011719 18.632812 30.707031 20.136719 31.070312 L 18.707031 36.304688 C 16.289062 35.691406 14.167969 34.535156 12.34375 32.839844 Z M 16.152344 28.972656 " fill-opacity="1" fill-rule="nonzero"/><path fill="#3f7a98" d="M 20.425781 30.910156 L 18.867188 36.589844 L 18.644531 36.535156 C 16.191406 35.910156 14.039062 34.734375 12.183594 33.011719 L 12.011719 32.847656 L 16.144531 28.652344 L 16.304688 28.800781 C 17.429688 29.808594 18.722656 30.492188 20.191406 30.84375 Z M 18.539062 36.023438 L 19.851562 31.238281 C 18.472656 30.871094 17.246094 30.222656 16.164062 29.292969 L 12.675781 32.832031 C 14.375 34.363281 16.332031 35.425781 18.539062 36.023438 Z M 18.539062 36.023438 " fill-opacity="1" fill-rule="nonzero"/><path fill="#3f526e" d="M 13.53125 24.796875 C 14.007812 26.4375 14.882812 27.828125 16.152344 28.972656 L 12.34375 32.839844 C 10.378906 31.011719 9.027344 28.804688 8.292969 26.21875 Z M 13.53125 24.796875 " fill-opacity="1" fill-rule="nonzero"/><path fill="#3f7a98" d="M 16.484375 28.960938 L 12.351562 33.164062 L 12.183594 33.011719 C 10.1875 31.148438 8.816406 28.90625 8.070312 26.28125 L 8.007812 26.058594 L 13.6875 24.515625 L 13.75 24.738281 C 14.21875 26.335938 15.070312 27.691406 16.304688 28.808594 Z M 12.339844 32.519531 L 15.820312 28.984375 C 14.671875 27.890625 13.855469 26.589844 13.375 25.082031 L 8.582031 26.378906 C 9.300781 28.753906 10.550781 30.796875 12.339844 32.515625 Z M 12.339844 32.519531 " fill-opacity="1" fill-rule="nonzero"/><path fill="#3f526e" d="M 12.023438 11.941406 L 15.816406 15.820312 C 14.679688 16.960938 13.898438 18.308594 13.476562 19.863281 L 8.242188 18.4375 C 8.921875 15.933594 10.183594 13.769531 12.023438 11.941406 Z M 12.023438 11.941406 " fill-opacity="1" fill-rule="nonzero"/><path fill="#3f7a98" d="M 16.140625 15.820312 L 15.980469 15.980469 C 14.871094 17.09375 14.109375 18.410156 13.699219 19.925781 L 13.636719 20.148438 L 7.957031 18.589844 L 8.015625 18.371094 C 8.714844 15.832031 9.996094 13.640625 11.859375 11.785156 L 12.027344 11.621094 Z M 13.316406 19.578125 C 13.742188 18.152344 14.46875 16.898438 15.496094 15.820312 L 12.019531 12.261719 C 10.355469 13.972656 9.191406 15.972656 8.527344 18.265625 Z M 13.316406 19.578125 " fill-opacity="1" fill-rule="nonzero"/><path fill="#3f526e" d="M 18.480469 8.226562 L 18.640625 8.183594 L 20.011719 13.4375 L 19.894531 13.46875 C 18.324219 13.886719 16.96875 14.667969 15.824219 15.816406 L 12.019531 11.9375 C 13.84375 10.128906 15.996094 8.890625 18.480469 8.226562 Z M 18.480469 8.226562 " fill-opacity="1" fill-rule="nonzero"/><path fill="#3f7a98" d="M 18.804688 7.910156 L 20.292969 13.617188 L 20.054688 13.664062 L 19.949219 13.691406 C 18.421875 14.101562 17.097656 14.863281 15.980469 15.980469 L 15.816406 16.144531 L 11.699219 11.9375 L 11.859375 11.777344 C 13.710938 9.933594 15.898438 8.675781 18.421875 7.996094 L 18.585938 7.953125 Z M 19.726562 13.273438 L 18.472656 8.46875 C 16.136719 9.109375 14.097656 10.265625 12.347656 11.941406 L 15.820312 15.5 C 16.9375 14.433594 18.238281 13.691406 19.726562 13.273438 Z M 19.726562 13.273438 " fill-opacity="1" fill-rule="nonzero"/><path fill="#ffffff" d="M 15.816406 15.820312 C 15.253906 16.382812 14.773438 17.007812 14.375 17.699219 C 13.976562 18.390625 13.675781 19.117188 13.46875 19.886719 C 13.261719 20.65625 13.160156 21.441406 13.160156 22.238281 C 13.160156 23.035156 13.265625 23.816406 13.472656 24.585938 C 13.488281 24.65625 13.507812 24.726562 13.53125 24.796875 C 13.695312 25.359375 13.914062 25.902344 14.183594 26.421875 C 14.453125 26.941406 14.769531 27.433594 15.136719 27.890625 C 15.5 28.351562 15.90625 28.769531 16.355469 29.152344 C 16.800781 29.53125 17.28125 29.863281 17.792969 30.152344 C 18.304688 30.441406 18.835938 30.675781 19.394531 30.859375 C 19.953125 31.042969 20.519531 31.171875 21.101562 31.246094 C 21.683594 31.316406 22.269531 31.335938 22.855469 31.292969 C 23.441406 31.253906 24.015625 31.15625 24.582031 31.007812 C 25.152344 30.855469 25.699219 30.648438 26.230469 30.386719 C 26.757812 30.128906 27.257812 29.820312 27.726562 29.460938 C 28.195312 29.105469 28.625 28.707031 29.015625 28.265625 C 29.40625 27.824219 29.753906 27.351562 30.050781 26.84375 C 30.351562 26.335938 30.597656 25.800781 30.792969 25.246094 C 30.988281 24.691406 31.125 24.121094 31.210938 23.539062 C 31.292969 22.953125 31.320312 22.367188 31.289062 21.78125 C 31.261719 21.191406 31.175781 20.609375 31.03125 20.039062 C 31.03125 19.988281 31.007812 19.9375 30.992188 19.890625 C 30.839844 19.320312 30.632812 18.769531 30.375 18.242188 C 30.113281 17.710938 29.804688 17.210938 29.449219 16.742188 C 29.089844 16.273438 28.691406 15.839844 28.25 15.449219 C 27.808594 15.058594 27.332031 14.714844 26.824219 14.414062 C 26.316406 14.117188 25.785156 13.867188 25.226562 13.675781 C 24.667969 13.480469 24.097656 13.339844 23.515625 13.257812 C 22.929688 13.171875 22.34375 13.148438 21.753906 13.179688 C 21.164062 13.210938 20.585938 13.296875 20.011719 13.441406 L 19.894531 13.472656 C 18.324219 13.886719 16.964844 14.667969 15.816406 15.820312 Z M 15.816406 15.820312 " fill-opacity="1" fill-rule="nonzero"/><path fill="#3f7a98" d="M 31.226562 19.824219 C 31.242188 19.878906 31.253906 19.933594 31.265625 19.984375 C 31.417969 20.574219 31.507812 21.167969 31.542969 21.773438 C 31.578125 22.378906 31.550781 22.980469 31.46875 23.578125 C 31.386719 24.179688 31.246094 24.765625 31.046875 25.335938 C 30.847656 25.910156 30.597656 26.457031 30.292969 26.980469 C 29.988281 27.503906 29.636719 27.992188 29.234375 28.445312 C 28.835938 28.902344 28.394531 29.3125 27.914062 29.679688 C 27.433594 30.046875 26.921875 30.367188 26.378906 30.636719 C 25.835938 30.90625 25.273438 31.117188 24.6875 31.277344 C 24.105469 31.433594 23.511719 31.535156 22.90625 31.578125 C 22.300781 31.621094 21.699219 31.605469 21.097656 31.53125 C 20.5 31.453125 19.910156 31.324219 19.335938 31.132812 C 18.761719 30.941406 18.210938 30.699219 17.683594 30.402344 C 17.15625 30.105469 16.660156 29.757812 16.199219 29.367188 C 15.742188 28.972656 15.324219 28.539062 14.949219 28.0625 C 14.574219 27.585938 14.246094 27.082031 13.972656 26.542969 C 13.695312 26.003906 13.472656 25.441406 13.304688 24.859375 C 13.285156 24.789062 13.265625 24.714844 13.246094 24.636719 C 13.035156 23.847656 12.929688 23.046875 12.929688 22.230469 C 12.929688 21.414062 13.035156 20.613281 13.246094 19.824219 C 13.457031 19.035156 13.765625 18.289062 14.175781 17.582031 C 14.582031 16.875 15.074219 16.230469 15.652344 15.65625 C 16.828125 14.480469 18.21875 13.675781 19.824219 13.246094 L 19.957031 13.210938 C 20.542969 13.0625 21.140625 12.972656 21.746094 12.941406 C 22.347656 12.910156 22.949219 12.9375 23.550781 13.023438 C 24.148438 13.105469 24.734375 13.25 25.304688 13.449219 C 25.878906 13.648438 26.425781 13.902344 26.945312 14.207031 C 27.46875 14.515625 27.957031 14.867188 28.410156 15.269531 C 28.863281 15.671875 29.273438 16.113281 29.640625 16.59375 C 30.007812 17.078125 30.324219 17.589844 30.589844 18.132812 C 30.855469 18.675781 31.066406 19.242188 31.222656 19.824219 Z M 13.691406 24.527344 C 13.710938 24.59375 13.730469 24.664062 13.75 24.730469 C 13.910156 25.28125 14.121094 25.8125 14.382812 26.324219 C 14.644531 26.835938 14.957031 27.320312 15.3125 27.769531 C 15.667969 28.222656 16.066406 28.632812 16.503906 29.007812 C 16.941406 29.382812 17.410156 29.710938 17.910156 29.992188 C 18.414062 30.273438 18.9375 30.507812 19.484375 30.6875 C 20.027344 30.867188 20.585938 30.992188 21.160156 31.0625 C 21.730469 31.132812 22.300781 31.148438 22.875 31.109375 C 23.449219 31.066406 24.015625 30.972656 24.570312 30.820312 C 25.125 30.671875 25.660156 30.46875 26.175781 30.210938 C 26.691406 29.957031 27.175781 29.652344 27.632812 29.304688 C 28.089844 28.953125 28.507812 28.5625 28.886719 28.132812 C 29.269531 27.699219 29.601562 27.234375 29.890625 26.738281 C 30.183594 26.242188 30.421875 25.71875 30.609375 25.175781 C 30.796875 24.632812 30.929688 24.078125 31.007812 23.507812 C 31.089844 22.9375 31.113281 22.363281 31.078125 21.789062 C 31.046875 21.214844 30.960938 20.648438 30.816406 20.09375 C 30.804688 20.039062 30.789062 19.992188 30.78125 19.945312 C 30.632812 19.390625 30.429688 18.851562 30.175781 18.335938 C 29.925781 17.820312 29.621094 17.332031 29.273438 16.875 C 28.925781 16.417969 28.535156 15.996094 28.105469 15.613281 C 27.671875 15.234375 27.207031 14.898438 26.710938 14.605469 C 26.214844 14.3125 25.695312 14.074219 25.152344 13.882812 C 24.609375 13.695312 24.050781 13.558594 23.480469 13.480469 C 22.910156 13.398438 22.339844 13.375 21.761719 13.40625 C 21.1875 13.4375 20.621094 13.523438 20.0625 13.664062 C 20.015625 13.664062 19.984375 13.683594 19.945312 13.691406 C 18.417969 14.101562 17.097656 14.863281 15.980469 15.980469 C 15.429688 16.53125 14.960938 17.140625 14.574219 17.8125 C 14.1875 18.488281 13.890625 19.199219 13.691406 19.949219 C 13.488281 20.699219 13.390625 21.460938 13.390625 22.238281 C 13.390625 23.015625 13.488281 23.777344 13.691406 24.527344 Z M 13.691406 24.527344 " fill-opacity="1" fill-rule="nonzero"/><path fill="#3f526e" d="M 36.277344 18.613281 C 36.921875 21.097656 36.90625 23.578125 36.226562 26.050781 L 30.992188 24.625 C 31.414062 23.101562 31.429688 21.570312 31.042969 20.035156 Z M 36.277344 18.613281 " fill-opacity="1" fill-rule="nonzero"/><path fill="#3f7a98" d="M 36.441406 18.328125 L 36.5 18.550781 C 37.152344 21.074219 37.136719 23.59375 36.449219 26.109375 L 36.390625 26.332031 L 30.707031 24.777344 L 30.769531 24.554688 C 31.175781 23.066406 31.191406 21.574219 30.816406 20.078125 L 30.761719 19.855469 Z M 36.066406 25.765625 C 36.648438 23.480469 36.664062 21.191406 36.109375 18.894531 L 31.316406 20.199219 C 31.640625 21.625 31.625 23.046875 31.273438 24.464844 Z M 36.066406 25.765625 " fill-opacity="1" fill-rule="nonzero"/><path fill="#3f526e" d="M 8.242188 18.4375 L 13.476562 19.863281 C 13.046875 21.4375 13.046875 23.011719 13.476562 24.585938 C 13.492188 24.65625 13.511719 24.726562 13.535156 24.796875 L 8.296875 26.21875 C 8.277344 26.144531 8.257812 26.066406 8.238281 25.996094 C 7.554688 23.476562 7.554688 20.957031 8.242188 18.4375 Z M 8.242188 18.4375 " fill-opacity="1" fill-rule="nonzero"/><path fill="#3f7a98" d="M 13.757812 19.703125 L 13.699219 19.921875 C 13.28125 21.457031 13.28125 22.992188 13.699219 24.527344 C 13.714844 24.59375 13.734375 24.664062 13.753906 24.730469 L 13.824219 24.953125 L 8.136719 26.507812 L 8.078125 26.285156 C 8.054688 26.207031 8.03125 26.132812 8.011719 26.0625 C 7.320312 23.503906 7.320312 20.949219 8.011719 18.390625 L 8.070312 18.167969 Z M 13.242188 24.632812 C 12.835938 23.101562 12.816406 21.566406 13.191406 20.027344 L 8.402344 18.722656 C 7.792969 21.128906 7.808594 23.53125 8.449219 25.933594 Z M 13.242188 24.632812 " fill-opacity="1" fill-rule="nonzero"/><path fill="#3f526e" d="M 20.136719 31.070312 C 21.625 31.421875 23.109375 31.402344 24.585938 31.003906 L 25.949219 36.246094 C 23.539062 36.886719 21.125 36.902344 18.707031 36.292969 Z M 20.136719 31.070312 " fill-opacity="1" fill-rule="nonzero"/><path fill="#3f7a98" d="M 24.746094 30.722656 L 26.238281 36.417969 L 26.015625 36.480469 C 23.566406 37.128906 21.113281 37.144531 18.652344 36.53125 L 18.433594 36.472656 L 19.988281 30.796875 L 20.210938 30.847656 C 21.660156 31.191406 23.105469 31.167969 24.542969 30.785156 Z M 25.667969 36.085938 L 24.417969 31.285156 C 23.050781 31.617188 21.679688 31.640625 20.300781 31.351562 L 18.988281 36.132812 C 21.21875 36.65625 23.445312 36.640625 25.667969 36.085938 Z M 25.667969 36.085938 " fill-opacity="1" fill-rule="nonzero"/><path fill="#3f526e" d="M 18.636719 8.191406 C 21.226562 7.523438 23.804688 7.570312 26.367188 8.335938 L 24.9375 13.5625 C 23.308594 13.054688 21.664062 13.011719 20.011719 13.4375 Z M 18.636719 8.191406 " fill-opacity="1" fill-rule="nonzero"/><path fill="#3f7a98" d="M 26.652344 8.179688 L 25.097656 13.859375 L 24.875 13.789062 C 23.285156 13.292969 21.683594 13.25 20.070312 13.660156 L 19.847656 13.71875 L 18.355469 8.023438 L 18.578125 7.964844 C 21.210938 7.289062 23.828125 7.335938 26.433594 8.113281 Z M 24.773438 13.28125 L 26.085938 8.496094 C 23.710938 7.828125 21.320312 7.78125 18.921875 8.355469 L 20.171875 13.160156 C 21.71875 12.808594 23.25 12.847656 24.777344 13.28125 Z M 24.773438 13.28125 " fill-opacity="1" fill-rule="nonzero"/><path fill="#3f526e" d="M 32.6875 12.183594 C 34.414062 13.976562 35.601562 16.074219 36.246094 18.480469 L 36.28125 18.613281 L 31.042969 20.035156 C 31.042969 19.984375 31.015625 19.933594 31.003906 19.886719 C 30.617188 18.429688 29.910156 17.152344 28.878906 16.050781 Z M 32.6875 12.183594 " fill-opacity="1" fill-rule="nonzero"/><path fill="#3f7a98" d="M 36.46875 18.421875 L 36.503906 18.554688 L 36.554688 18.777344 L 30.871094 20.335938 L 30.820312 20.097656 C 30.808594 20.050781 30.796875 20.007812 30.785156 19.960938 C 30.402344 18.542969 29.714844 17.296875 28.714844 16.222656 L 28.5625 16.058594 L 32.6875 11.851562 L 32.851562 12.019531 C 34.605469 13.84375 35.8125 15.976562 36.46875 18.421875 Z M 31.207031 19.753906 L 35.992188 18.457031 C 35.378906 16.203125 34.277344 14.222656 32.6875 12.515625 L 29.199219 16.058594 C 30.152344 17.132812 30.816406 18.367188 31.199219 19.753906 Z M 31.207031 19.753906 " fill-opacity="1" fill-rule="nonzero"/><path fill="#3f7a98" d="M 26.195312 20.574219 C 25.925781 19.910156 25.84375 19.222656 25.949219 18.511719 L 22.234375 16.355469 L 18.535156 18.511719 C 18.644531 19.222656 18.5625 19.910156 18.289062 20.574219 C 17.929688 21.449219 17.335938 22.117188 16.511719 22.578125 C 16.511719 26.53125 22.25 28.136719 22.25 28.136719 C 22.25 28.136719 27.980469 26.527344 27.980469 22.578125 C 27.15625 22.117188 26.558594 21.449219 26.195312 20.574219 Z M 22.222656 26.929688 C 21.699219 26.796875 17.964844 25.777344 17.839844 22.953125 C 18.484375 22.429688 18.960938 21.78125 19.261719 21.007812 C 19.476562 20.445312 19.558594 19.867188 19.503906 19.273438 L 22.21875 17.617188 L 24.929688 19.273438 C 24.929688 19.390625 24.914062 19.507812 24.914062 19.621094 C 24.914062 20.097656 25 20.558594 25.167969 21.007812 C 25.472656 21.78125 25.945312 22.429688 26.59375 22.953125 C 26.472656 25.777344 22.738281 26.796875 22.21875 26.929688 Z M 22.222656 26.929688 " fill-opacity="1" fill-rule="nonzero"/><path fill="#3f7a98" d="M 28.042969 22.457031 C 27.699219 22.269531 27.390625 22.035156 27.121094 21.753906 C 26.847656 21.472656 26.625 21.15625 26.449219 20.808594 C 26.273438 20.457031 26.15625 20.089844 26.09375 19.703125 C 26.03125 19.316406 26.027344 18.929688 26.082031 18.539062 L 26.097656 18.449219 L 22.234375 16.195312 L 18.378906 18.4375 L 18.394531 18.53125 C 18.496094 19.21875 18.414062 19.886719 18.152344 20.53125 C 17.804688 21.375 17.230469 22.015625 16.433594 22.457031 L 16.363281 22.496094 L 16.363281 22.582031 C 16.363281 24.25 17.375 25.765625 19.296875 26.964844 C 20.207031 27.53125 21.179688 27.972656 22.207031 28.28125 L 22.277344 28.28125 C 23.304688 27.972656 24.273438 27.53125 25.183594 26.964844 C 27.097656 25.765625 28.117188 24.25 28.117188 22.582031 L 28.117188 22.496094 Z M 22.234375 27.992188 C 21.742188 27.84375 16.710938 26.230469 16.636719 22.65625 C 17.449219 22.175781 18.039062 21.5 18.402344 20.628906 C 18.671875 19.972656 18.765625 19.292969 18.679688 18.585938 L 22.234375 16.523438 L 25.792969 18.585938 C 25.773438 18.753906 25.761719 18.921875 25.761719 19.09375 C 25.761719 19.625 25.863281 20.136719 26.0625 20.628906 C 26.425781 21.503906 27.019531 22.179688 27.839844 22.65625 C 27.765625 26.234375 22.742188 27.84375 22.25 27.992188 Z M 22.234375 27.992188 " fill-opacity="1" fill-rule="nonzero"/><path fill="#ffffff" d="M 27.023438 22.566406 C 26.410156 22.105469 25.96875 21.519531 25.691406 20.804688 C 25.492188 20.273438 25.429688 19.726562 25.503906 19.164062 L 25.53125 18.984375 L 22.210938 16.960938 L 18.902344 18.984375 L 18.925781 19.164062 C 19.003906 19.726562 18.941406 20.273438 18.742188 20.800781 C 18.464844 21.515625 18.019531 22.105469 17.40625 22.566406 L 17.265625 22.648438 L 17.265625 22.808594 C 17.265625 24.304688 18.117188 25.597656 19.738281 26.535156 C 20.496094 26.972656 21.300781 27.292969 22.152344 27.496094 L 22.210938 27.511719 L 22.273438 27.496094 C 23.121094 27.292969 23.925781 26.972656 24.683594 26.535156 C 26.304688 25.597656 27.15625 24.3125 27.15625 22.808594 L 27.15625 22.648438 Z M 22.222656 26.929688 C 21.699219 26.800781 17.964844 25.777344 17.839844 22.957031 C 18.484375 22.433594 18.960938 21.78125 19.261719 21.007812 C 19.476562 20.449219 19.554688 19.871094 19.503906 19.273438 L 22.214844 17.621094 L 24.929688 19.273438 C 24.929688 19.390625 24.914062 19.496094 24.914062 19.625 C 24.914062 20.101562 25 20.5625 25.167969 21.007812 C 25.46875 21.78125 25.945312 22.433594 26.59375 22.957031 C 26.472656 25.777344 22.738281 26.800781 22.21875 26.929688 Z M 22.222656 26.929688 " fill-opacity="1" fill-rule="nonzero"/><path fill="#3f7a98" d="M 26.597656 22.953125 C 26.472656 25.777344 22.738281 26.800781 22.21875 26.929688 C 21.699219 26.796875 17.964844 25.777344 17.839844 22.953125 C 18.484375 22.429688 18.960938 21.78125 19.261719 21.003906 C 19.476562 20.445312 19.554688 19.867188 19.503906 19.273438 L 22.214844 17.617188 L 24.925781 19.273438 C 24.925781 19.390625 24.914062 19.507812 24.914062 19.621094 C 24.914062 20.097656 24.996094 20.558594 25.167969 21.007812 C 25.472656 21.78125 25.949219 22.429688 26.597656 22.953125 Z M 26.597656 22.953125 " fill-opacity="1" fill-rule="nonzero"/></svg>