<svg xmlns="http://www.w3.org/2000/svg" xmlns:xlink="http://www.w3.org/1999/xlink" width="60" zoomAndPan="magnify" viewBox="0 0 45 44.999999" height="60" preserveAspectRatio="xMidYMid meet" version="1.0"><defs><clipPath id="1b9231c23d"><path d="M 12.824219 9.449219 L 14.851562 9.449219 L 14.851562 35 L 12.824219 35 Z M 12.824219 9.449219 " clip-rule="nonzero"/></clipPath><clipPath id="fb4ec9328b"><path d="M 14.835938 22.519531 C 14.835938 26.496094 14.722656 35.417969 14.722656 35.417969 L 12.945312 35.417969 L 12.972656 9.597656 L 14.8125 9.597656 C 14.8125 9.597656 14.835938 18.539062 14.835938 22.511719 " clip-rule="nonzero"/></clipPath><clipPath id="0020411986"><path d="M 7.648438 14.175781 L 37.800781 14.175781 L 37.800781 30.148438 L 7.648438 30.148438 Z M 7.648438 14.175781 " clip-rule="nonzero"/></clipPath><clipPath id="c429a6af70"><path d="M 37.003906 30.011719 L 8.28125 30.011719 C 7.863281 30.023438 7.65625 29.820312 7.648438 29.402344 L 7.648438 14.828125 C 7.65625 14.417969 7.863281 14.214844 8.273438 14.21875 L 37.003906 14.21875 C 37.417969 14.210938 37.625 14.414062 37.632812 14.824219 L 37.632812 29.402344 C 37.625 29.8125 37.417969 30.015625 37.003906 30.011719 " clip-rule="nonzero"/></clipPath><clipPath id="0c21d2912a"><path d="M 9.675781 16 L 35.550781 16 L 35.550781 28.351562 L 9.675781 28.351562 Z M 9.675781 16 " clip-rule="nonzero"/></clipPath><clipPath id="c4275f2b2d"><path d="M 35.027344 28.160156 L 10.261719 28.160156 C 9.933594 28.164062 9.765625 28.003906 9.757812 27.675781 L 9.757812 16.628906 C 9.761719 16.292969 9.929688 16.128906 10.261719 16.132812 L 35.027344 16.132812 C 35.359375 16.128906 35.53125 16.292969 35.535156 16.628906 L 35.535156 27.675781 C 35.53125 28.007812 35.359375 28.171875 35.027344 28.167969 " clip-rule="nonzero"/></clipPath><clipPath id="64bc757434"><path d="M 20.699219 20.023438 L 24.523438 20.023438 L 24.523438 24 L 20.699219 24 Z M 20.699219 20.023438 " clip-rule="nonzero"/></clipPath><clipPath id="8183dfc404"><path d="M 24.523438 22.136719 C 24.511719 22.648438 24.324219 23.082031 23.960938 23.441406 C 23.597656 23.800781 23.160156 23.984375 22.648438 23.988281 C 22.136719 23.992188 21.699219 23.820312 21.328125 23.46875 C 20.957031 23.117188 20.761719 22.683594 20.738281 22.171875 C 20.738281 22.148438 20.738281 22.121094 20.738281 22.097656 C 20.738281 21.574219 20.925781 21.128906 21.296875 20.761719 C 21.667969 20.390625 22.113281 20.210938 22.636719 20.210938 C 23.160156 20.210938 23.605469 20.398438 23.972656 20.769531 C 24.339844 21.140625 24.523438 21.585938 24.523438 22.109375 L 24.523438 22.136719 " clip-rule="nonzero"/></clipPath><clipPath id="15f45aada2"><path d="M 9.675781 25.425781 L 12.375 25.425781 L 12.375 28.125 L 9.675781 28.125 Z M 9.675781 25.425781 " clip-rule="nonzero"/></clipPath><clipPath id="99b9e346fc"><path d="M 9.753906 25.492188 C 11.140625 25.839844 12.015625 26.703125 12.375 28.089844 C 11.550781 28.089844 10.765625 28.089844 9.984375 28.089844 C 9.761719 28.089844 9.761719 27.984375 9.761719 27.820312 C 9.761719 27.0625 9.761719 26.300781 9.761719 25.488281 " clip-rule="nonzero"/></clipPath><clipPath id="9071d2000e"><path d="M 32.851562 25.425781 L 35.550781 25.425781 L 35.550781 28.125 L 32.851562 28.125 Z M 32.851562 25.425781 " clip-rule="nonzero"/></clipPath><clipPath id="4feeeb475e"><path d="M 35.5 25.519531 C 35.5 26.316406 35.5 27.074219 35.5 27.828125 C 35.5 28.054688 35.417969 28.09375 35.21875 28.089844 C 34.460938 28.089844 33.703125 28.089844 32.945312 28.089844 C 33.074219 26.953125 34.171875 25.839844 35.496094 25.523438 " clip-rule="nonzero"/></clipPath><clipPath id="ef1141405c"><path d="M 9.675781 16 L 12.375 16 L 12.375 18.898438 L 9.675781 18.898438 Z M 9.675781 16 " clip-rule="nonzero"/></clipPath><clipPath id="413148dab6"><path d="M 9.753906 18.710938 C 9.753906 17.953125 9.753906 17.195312 9.753906 16.4375 C 9.753906 16.214844 9.847656 16.175781 10.042969 16.175781 C 10.714844 16.175781 11.40625 16.175781 12.089844 16.175781 C 12.203125 16.175781 12.371094 16.105469 12.316406 16.363281 C 12.140625 17.355469 10.816406 18.582031 9.75 18.703125 " clip-rule="nonzero"/></clipPath><clipPath id="b5651c8cc1"><path d="M 32.851562 16 L 35.773438 16 L 35.773438 18.898438 L 32.851562 18.898438 Z M 32.851562 16 " clip-rule="nonzero"/></clipPath><clipPath id="1d8680f91f"><path d="M 35.550781 18.710938 C 35.550781 17.953125 35.550781 17.195312 35.550781 16.4375 C 35.550781 16.214844 35.457031 16.175781 35.261719 16.175781 C 34.585938 16.175781 33.894531 16.175781 33.210938 16.175781 C 33.101562 16.175781 32.929688 16.105469 32.984375 16.363281 C 33.164062 17.355469 34.484375 18.582031 35.550781 18.703125 " clip-rule="nonzero"/></clipPath><clipPath id="0b2ded76fb"><path d="M 7.425781 9.449219 L 13.5 9.449219 L 13.5 12.148438 L 7.425781 12.148438 Z M 7.425781 9.449219 " clip-rule="nonzero"/></clipPath><clipPath id="9d6f683796"><path d="M 10.429688 12.132812 C 9.511719 12.132812 8.589844 12.132812 7.671875 12.132812 C 7.507812 12.132812 7.445312 12.105469 7.445312 11.921875 C 7.445312 11.210938 7.445312 10.5 7.445312 9.789062 C 7.445312 9.628906 7.496094 9.582031 7.652344 9.582031 C 9.511719 9.582031 11.371094 9.601562 13.230469 9.597656 C 13.410156 9.597656 13.417969 9.660156 13.414062 9.800781 C 13.414062 10.503906 13.414062 11.203125 13.414062 11.902344 C 13.414062 12.089844 13.363281 12.128906 13.191406 12.128906 C 12.269531 12.128906 11.347656 12.128906 10.429688 12.128906 " clip-rule="nonzero"/></clipPath><clipPath id="aa3c8294b9"><path d="M 7.425781 31.726562 L 13.5 31.726562 L 13.5 34.648438 L 7.425781 34.648438 Z M 7.425781 31.726562 " clip-rule="nonzero"/></clipPath><clipPath id="91028478a3"><path d="M 10.429688 34.472656 C 9.511719 34.472656 8.589844 34.472656 7.671875 34.472656 C 7.507812 34.472656 7.445312 34.445312 7.445312 34.25 C 7.445312 33.539062 7.445312 32.828125 7.445312 32.117188 C 7.445312 31.960938 7.496094 31.910156 7.652344 31.910156 C 9.511719 31.910156 11.371094 31.933594 13.230469 31.925781 C 13.410156 31.925781 13.417969 31.992188 13.414062 32.132812 C 13.414062 32.832031 13.414062 33.53125 13.414062 34.230469 C 13.414062 34.421875 13.363281 34.457031 13.191406 34.457031 C 12.269531 34.457031 11.347656 34.457031 10.429688 34.457031 " clip-rule="nonzero"/></clipPath><clipPath id="65427022cb"><path d="M 7.199219 9.449219 L 11.699219 9.449219 L 11.699219 34.425781 L 7.199219 34.425781 Z M 7.199219 9.449219 " clip-rule="nonzero"/></clipPath><clipPath id="a18915a9d2"><path d="M 11.484375 22.445312 C 11.484375 26.402344 11.609375 34.425781 11.316406 34.410156 C 10.191406 34.363281 8.617188 34.339844 7.492188 34.375 C 7.234375 34.375 7.460938 18.398438 7.449219 10.410156 C 7.449219 9.640625 7.796875 9.597656 7.796875 9.597656 L 11.121094 9.597656 C 11.121094 9.597656 11.496094 9.796875 11.492188 10.570312 C 11.480469 14.527344 11.492188 18.484375 11.492188 22.4375 " clip-rule="nonzero"/></clipPath></defs><g clip-path="url(#1b9231c23d)"><g clip-path="url(#fb4ec9328b)"><path fill="#3f7a98" d="M 12.386719 6.222656 L 15.421875 6.222656 L 15.421875 34.445312 L 12.386719 34.445312 Z M 12.386719 6.222656 " fill-opacity="1" fill-rule="nonzero"/></g></g><g clip-path="url(#0020411986)"><g clip-path="url(#c429a6af70)"><path fill="#3f526e" d="M 6.390625 12.976562 L 38.902344 12.976562 L 38.902344 31.253906 L 6.390625 31.253906 Z M 6.390625 12.976562 " fill-opacity="1" fill-rule="nonzero"/></g></g><g clip-path="url(#0c21d2912a)"><g clip-path="url(#c4275f2b2d)"><path fill="#3f7a98" d="M 8.480469 14.894531 L 36.808594 14.894531 L 36.808594 29.398438 L 8.480469 29.398438 Z M 8.480469 14.894531 " fill-opacity="1" fill-rule="nonzero"/></g></g><g clip-path="url(#64bc757434)"><g clip-path="url(#8183dfc404)"><path fill="#ffffff" d="M 19.492188 18.972656 L 25.769531 18.972656 L 25.769531 25.285156 L 19.492188 25.285156 Z M 19.492188 18.972656 " fill-opacity="1" fill-rule="nonzero"/></g></g><g clip-path="url(#15f45aada2)"><g clip-path="url(#99b9e346fc)"><path fill="#ffffff" d="M 8.507812 24.25 L 13.609375 24.25 L 13.609375 29.335938 L 8.507812 29.335938 Z M 8.507812 24.25 " fill-opacity="1" fill-rule="nonzero"/></g></g><g clip-path="url(#9071d2000e)"><g clip-path="url(#4feeeb475e)"><path fill="#ffffff" d="M 31.710938 24.28125 L 36.75 24.28125 L 36.75 29.335938 L 31.710938 29.335938 Z M 31.710938 24.28125 " fill-opacity="1" fill-rule="nonzero"/></g></g><g clip-path="url(#ef1141405c)"><g clip-path="url(#413148dab6)"><path fill="#ffffff" d="M 8.503906 14.871094 L 13.605469 14.871094 L 13.605469 19.949219 L 8.503906 19.949219 Z M 8.503906 14.871094 " fill-opacity="1" fill-rule="nonzero"/></g></g><g clip-path="url(#b5651c8cc1)"><g clip-path="url(#1d8680f91f)"><path fill="#ffffff" d="M 31.695312 14.871094 L 36.796875 14.871094 L 36.796875 19.949219 L 31.695312 19.949219 Z M 31.695312 14.871094 " fill-opacity="1" fill-rule="nonzero"/></g></g><g clip-path="url(#0b2ded76fb)"><g clip-path="url(#9d6f683796)"><path fill="#3f7a98" d="M 6.699219 9.019531 L 14.226562 9.019531 L 14.226562 13.152344 L 6.699219 13.152344 Z M 6.699219 9.019531 " fill-opacity="1" fill-rule="nonzero"/></g></g><g clip-path="url(#aa3c8294b9)"><g clip-path="url(#91028478a3)"><path fill="#3f7a98" d="M 6.699219 31.363281 L 14.226562 31.363281 L 14.226562 35.496094 L 6.699219 35.496094 Z M 6.699219 31.363281 " fill-opacity="1" fill-rule="nonzero"/></g></g><g clip-path="url(#65427022cb)"><g clip-path="url(#a18915a9d2)"><path fill="#3f7a98" d="M 6.207031 6.242188 L 12.753906 6.242188 L 12.753906 37.105469 L 6.207031 37.105469 Z M 6.207031 6.242188 " fill-opacity="1" fill-rule="nonzero"/></g></g></svg>