<svg xmlns="http://www.w3.org/2000/svg" xmlns:xlink="http://www.w3.org/1999/xlink" width="60" zoomAndPan="magnify" viewBox="0 0 45 44.999999" height="60" preserveAspectRatio="xMidYMid meet" version="1.0"><defs><filter x="0%" y="0%" width="100%" height="100%" id="c64a8b98a7"><feColorMatrix values="0 0 0 0 1 0 0 0 0 1 0 0 0 0 1 0 0 0 1 0" color-interpolation-filters="sRGB"/></filter><mask id="fadcf815ee"><g filter="url(#c64a8b98a7)"><rect x="-4.5" width="54" fill="#000000" y="-4.5" height="53.999999" fill-opacity="0.15"/></g></mask><clipPath id="6f6b18e949"><path d="M 0.0976562 0.691406 L 20.46875 0.691406 L 20.46875 21.0625 L 0.0976562 21.0625 Z M 0.0976562 0.691406 " clip-rule="nonzero"/></clipPath><clipPath id="e6848cbaaa"><path d="M 10.28125 0.691406 C 4.660156 0.691406 0.0976562 5.253906 0.0976562 10.878906 C 0.0976562 16.503906 4.660156 21.0625 10.28125 21.0625 C 15.90625 21.0625 20.46875 16.503906 20.46875 10.878906 C 20.46875 5.253906 15.90625 0.691406 10.28125 0.691406 Z M 10.28125 0.691406 " clip-rule="nonzero"/></clipPath><clipPath id="fb39ed995f"><rect x="0" width="21" y="0" height="22"/></clipPath><clipPath id="d53c025428"><path d="M 16 13.917969 L 32.257812 13.917969 L 32.257812 28.917969 L 16 28.917969 Z M 16 13.917969 " clip-rule="nonzero"/></clipPath><clipPath id="2173309941"><path d="M 14.257812 17 L 23 17 L 23 26 L 14.257812 26 Z M 14.257812 17 " clip-rule="nonzero"/></clipPath><clipPath id="da435d8986"><path d="M 14.257812 13.917969 L 32.257812 13.917969 L 32.257812 28.917969 L 14.257812 28.917969 Z M 14.257812 13.917969 " clip-rule="nonzero"/></clipPath></defs><rect x="-4.5" width="54" fill="#ffffff" y="-4.5" height="53.999999" fill-opacity="1"/><rect x="-4.5" width="54" fill="#ffffff" y="-4.5" height="53.999999" fill-opacity="1"/><g mask="url(#fadcf815ee)"><g transform="matrix(1, 0, 0, 1, 11, 10)"><g clip-path="url(#fb39ed995f)"><g clip-path="url(#6f6b18e949)"><g clip-path="url(#e6848cbaaa)"><path fill="#004aad" d="M 0.0976562 0.691406 L 20.46875 0.691406 L 20.46875 21.0625 L 0.0976562 21.0625 Z M 0.0976562 0.691406 " fill-opacity="1" fill-rule="nonzero"/></g></g></g></g></g><g clip-path="url(#d53c025428)"><path fill="#fff3e1" d="M 32.183594 14.488281 L 29.933594 28.441406 C 29.875 28.804688 29.5625 29.070312 29.191406 29.070312 L 18.28125 29.070312 L 29.085938 29.070312 C 28.675781 29.070312 28.339844 28.738281 28.339844 28.328125 L 28.339844 27.582031 L 18.523438 27.582031 L 18.878906 25.371094 L 19.964844 24.84375 C 21.222656 24.230469 22.023438 22.953125 22.023438 21.550781 L 22.023438 19.125 C 21.226562 19.125 20.511719 18.765625 20.035156 18.203125 L 20.65625 14.347656 C 20.691406 14.132812 20.878906 13.972656 21.097656 13.972656 L 31.746094 13.972656 C 32.019531 13.972656 32.226562 14.21875 32.183594 14.488281 Z M 20.234375 23.121094 L 16.597656 23.121094 L 16.597656 19.804688 L 20.234375 19.804688 Z M 20.234375 23.121094 " fill-opacity="1" fill-rule="nonzero"/><path fill="#004aad" d="M 29.085938 29.070312 L 17.359375 29.070312 C 16.949219 29.070312 16.613281 28.738281 16.613281 28.328125 L 16.613281 27.582031 L 28.339844 27.582031 L 28.339844 28.328125 C 28.339844 28.738281 28.675781 29.070312 29.085938 29.070312 Z M 31.746094 13.972656 L 21.097656 13.972656 C 20.878906 13.972656 20.691406 14.132812 20.65625 14.347656 L 20.457031 15.578125 L 25.621094 15.578125 C 25.816406 15.578125 25.980469 15.417969 25.980469 15.222656 C 25.980469 15.023438 26.140625 14.863281 26.335938 14.863281 L 32.125 14.863281 L 32.183594 14.488281 C 32.226562 14.21875 32.019531 13.972656 31.746094 13.972656 Z M 31.746094 13.972656 " fill-opacity="1" fill-rule="nonzero"/></g><path fill="#004aad" d="M 30.054688 17.222656 L 29.738281 18.835938 C 29.691406 19.066406 29.46875 19.25 29.242188 19.25 L 26.351562 19.25 C 26.121094 19.25 25.972656 19.066406 26.019531 18.835938 L 26.335938 17.222656 C 26.378906 16.992188 26.601562 16.808594 26.832031 16.808594 L 29.71875 16.808594 C 29.949219 16.808594 30.097656 16.992188 30.054688 17.222656 Z M 30.054688 17.222656 " fill-opacity="1" fill-rule="nonzero"/><g clip-path="url(#2173309941)"><path fill="#004aad" d="M 19.628906 17.542969 L 16.714844 17.542969 C 16.320312 18.472656 15.394531 19.125 14.320312 19.125 L 14.320312 21.550781 C 14.320312 22.953125 15.121094 24.230469 16.378906 24.84375 L 18.171875 25.714844 L 19.964844 24.84375 C 21.222656 24.230469 22.023438 22.953125 22.023438 21.550781 L 22.023438 19.125 C 20.949219 19.125 20.027344 18.472656 19.628906 17.542969 Z M 19.507812 20.957031 C 19.160156 21.308594 18.808594 21.660156 18.457031 22.007812 C 18.265625 22.203125 17.847656 22.621094 17.597656 22.871094 L 17.421875 22.691406 C 17.417969 22.683594 17.410156 22.675781 17.40625 22.671875 C 17.386719 22.652344 17.371094 22.636719 17.351562 22.621094 C 17.335938 22.605469 17.320312 22.589844 17.304688 22.574219 C 17.070312 22.347656 16.832031 22.125 16.597656 21.898438 L 16.988281 21.503906 C 17.023438 21.535156 17.054688 21.566406 17.089844 21.601562 C 17.257812 21.761719 17.425781 21.921875 17.597656 22.085938 C 17.613281 22.070312 17.628906 22.054688 17.644531 22.039062 C 17.996094 21.6875 18.34375 21.335938 18.695312 20.988281 C 18.914062 20.765625 19.136719 20.546875 19.355469 20.324219 L 19.75 20.71875 C 19.667969 20.796875 19.589844 20.878906 19.507812 20.957031 Z M 19.507812 20.957031 " fill-opacity="1" fill-rule="nonzero"/></g><g clip-path="url(#da435d8986)"><path fill="#004aad" d="M 21.167969 21.570312 L 21.167969 19.660156 L 21.113281 19.660156 C 20.339844 19.660156 19.640625 19.199219 19.335938 18.488281 L 19.320312 18.453125 L 17.023438 18.453125 L 17.007812 18.488281 C 16.703125 19.199219 16.007812 19.660156 15.230469 19.660156 L 15.175781 19.660156 L 15.175781 21.570312 C 15.175781 22.652344 15.804688 23.660156 16.777344 24.136719 L 18.171875 24.8125 L 19.566406 24.136719 C 20.539062 23.660156 21.167969 22.652344 21.167969 21.570312 Z M 18.171875 24.691406 L 16.828125 24.035156 C 15.890625 23.578125 15.285156 22.609375 15.285156 21.570312 L 15.285156 19.773438 C 16.070312 19.75 16.773438 19.28125 17.097656 18.5625 L 19.25 18.5625 C 19.570312 19.28125 20.273438 19.75 21.058594 19.773438 L 21.058594 21.570312 C 21.058594 22.609375 20.453125 23.578125 19.515625 24.035156 Z M 25.964844 18.824219 C 25.9375 18.953125 25.964844 19.074219 26.042969 19.167969 C 26.113281 19.257812 26.226562 19.304688 26.351562 19.304688 L 29.242188 19.304688 C 29.496094 19.304688 29.742188 19.101562 29.792969 18.847656 L 30.109375 17.234375 C 30.132812 17.105469 30.105469 16.984375 30.03125 16.890625 C 29.957031 16.800781 29.847656 16.753906 29.71875 16.753906 L 26.832031 16.753906 C 26.578125 16.753906 26.332031 16.957031 26.28125 17.210938 Z M 26.832031 16.863281 L 29.71875 16.863281 C 29.8125 16.863281 29.894531 16.898438 29.945312 16.960938 C 30 17.027344 30.019531 17.117188 30 17.210938 L 29.683594 18.824219 C 29.640625 19.03125 29.445312 19.195312 29.242188 19.195312 L 26.351562 19.195312 C 26.257812 19.195312 26.179688 19.160156 26.125 19.097656 C 26.074219 19.03125 26.054688 18.941406 26.074219 18.847656 L 26.390625 17.234375 C 26.429688 17.03125 26.628906 16.863281 26.832031 16.863281 Z M 23.328125 20.464844 L 29.21875 20.464844 L 29.21875 20.578125 L 23.328125 20.578125 Z M 23.328125 21.738281 L 29.007812 21.738281 L 29.007812 21.847656 L 23.328125 21.847656 Z M 23.328125 23.011719 L 28.796875 23.011719 L 28.796875 23.121094 L 23.328125 23.121094 Z M 22.480469 24.28125 L 28.589844 24.28125 L 28.589844 24.390625 L 22.480469 24.390625 Z M 20.871094 25.554688 L 28.378906 25.554688 L 28.378906 25.664062 L 20.871094 25.664062 Z M 25.835938 28.609375 L 18.792969 28.609375 L 18.792969 28.5 L 25.835938 28.5 Z M 18.320312 28.609375 L 17.761719 28.609375 L 17.761719 28.5 L 18.320312 28.5 Z M 32.25 14.371094 L 32.230469 14.300781 C 32.226562 14.289062 32.226562 14.277344 32.222656 14.265625 C 32.21875 14.261719 32.21875 14.257812 32.21875 14.253906 C 32.214844 14.242188 32.210938 14.230469 32.207031 14.222656 C 32.203125 14.21875 32.203125 14.214844 32.199219 14.210938 C 32.195312 14.195312 32.1875 14.183594 32.179688 14.167969 C 32.175781 14.160156 32.167969 14.152344 32.164062 14.140625 C 32.160156 14.136719 32.15625 14.132812 32.152344 14.128906 C 32.148438 14.117188 32.140625 14.109375 32.132812 14.097656 C 32.128906 14.097656 32.128906 14.09375 32.125 14.09375 C 32.125 14.089844 32.125 14.089844 32.125 14.089844 C 32.101562 14.0625 32.074219 14.039062 32.050781 14.019531 C 32.046875 14.019531 32.046875 14.015625 32.042969 14.015625 C 32.03125 14.007812 32.019531 14 32.007812 13.992188 C 32.003906 13.988281 32.003906 13.988281 32 13.984375 C 31.984375 13.976562 31.972656 13.96875 31.957031 13.960938 C 31.941406 13.957031 31.921875 13.949219 31.90625 13.941406 C 31.90625 13.941406 31.902344 13.941406 31.902344 13.941406 C 31.890625 13.9375 31.875 13.933594 31.859375 13.929688 C 31.855469 13.929688 31.851562 13.929688 31.847656 13.925781 C 31.835938 13.925781 31.824219 13.921875 31.808594 13.921875 C 31.804688 13.921875 31.800781 13.921875 31.796875 13.917969 C 31.777344 13.917969 31.761719 13.917969 31.746094 13.917969 L 21.097656 13.917969 C 21.082031 13.917969 21.066406 13.917969 21.050781 13.917969 C 21.046875 13.917969 21.039062 13.921875 21.035156 13.921875 C 21.027344 13.921875 21.019531 13.921875 21.007812 13.925781 C 21.003906 13.925781 20.996094 13.925781 20.988281 13.929688 C 20.980469 13.929688 20.972656 13.933594 20.96875 13.933594 C 20.960938 13.9375 20.953125 13.9375 20.945312 13.941406 C 20.9375 13.941406 20.933594 13.945312 20.925781 13.945312 C 20.917969 13.949219 20.910156 13.953125 20.902344 13.957031 C 20.898438 13.957031 20.894531 13.960938 20.886719 13.960938 C 20.878906 13.964844 20.871094 13.96875 20.863281 13.972656 C 20.859375 13.976562 20.855469 13.976562 20.851562 13.980469 C 20.84375 13.984375 20.835938 13.992188 20.828125 13.996094 C 20.824219 14 20.820312 14 20.816406 14.003906 C 20.808594 14.007812 20.800781 14.015625 20.792969 14.019531 C 20.789062 14.023438 20.785156 14.023438 20.78125 14.027344 C 20.773438 14.035156 20.765625 14.039062 20.757812 14.046875 C 20.757812 14.050781 20.753906 14.050781 20.753906 14.054688 C 20.746094 14.0625 20.738281 14.070312 20.730469 14.078125 C 20.726562 14.078125 20.726562 14.082031 20.722656 14.082031 C 20.714844 14.089844 20.707031 14.101562 20.703125 14.109375 C 20.699219 14.113281 20.699219 14.113281 20.699219 14.113281 C 20.691406 14.125 20.683594 14.132812 20.675781 14.144531 C 20.675781 14.144531 20.675781 14.148438 20.675781 14.148438 C 20.667969 14.160156 20.660156 14.167969 20.65625 14.179688 C 20.65625 14.183594 20.65625 14.183594 20.652344 14.183594 C 20.648438 14.195312 20.640625 14.207031 20.636719 14.21875 C 20.636719 14.21875 20.636719 14.21875 20.636719 14.222656 C 20.632812 14.234375 20.625 14.246094 20.621094 14.261719 C 20.617188 14.273438 20.613281 14.289062 20.609375 14.300781 L 20.59375 14.371094 L 20.597656 14.371094 L 20 18.070312 C 19.871094 17.90625 19.765625 17.71875 19.679688 17.519531 L 19.664062 17.488281 L 16.679688 17.488281 L 16.664062 17.519531 C 16.261719 18.460938 15.34375 19.070312 14.320312 19.070312 L 14.265625 19.070312 L 14.265625 21.550781 C 14.265625 22.246094 14.460938 22.929688 14.832031 23.519531 C 15.199219 24.113281 15.726562 24.585938 16.355469 24.894531 L 18.171875 25.777344 L 18.808594 25.46875 L 18.476562 27.523438 L 16.558594 27.523438 L 16.558594 28.324219 C 16.558594 28.765625 16.917969 29.125 17.359375 29.125 L 29.191406 29.125 C 29.589844 29.125 29.925781 28.839844 29.988281 28.449219 L 32.171875 14.917969 L 32.238281 14.496094 C 32.242188 14.476562 32.246094 14.460938 32.246094 14.441406 C 32.246094 14.417969 32.246094 14.394531 32.242188 14.371094 Z M 32.078125 14.804688 L 26.335938 14.804688 C 26.109375 14.804688 25.921875 14.992188 25.921875 15.222656 C 25.921875 15.386719 25.789062 15.523438 25.621094 15.523438 L 20.523438 15.523438 L 20.710938 14.371094 L 32.132812 14.371094 C 32.132812 14.390625 32.136719 14.414062 32.132812 14.4375 C 32.132812 14.449219 32.132812 14.464844 32.128906 14.480469 Z M 18.171875 25.65625 L 16.40625 24.792969 C 15.171875 24.191406 14.375 22.921875 14.375 21.550781 L 14.375 19.179688 C 15.410156 19.160156 16.335938 18.546875 16.753906 17.597656 L 19.59375 17.597656 C 19.914062 18.324219 20.53125 18.851562 21.265625 19.070312 C 21.269531 19.074219 21.273438 19.074219 21.277344 19.074219 C 21.359375 19.097656 21.445312 19.121094 21.53125 19.136719 C 21.539062 19.136719 21.546875 19.140625 21.554688 19.140625 C 21.597656 19.148438 21.640625 19.15625 21.683594 19.160156 C 21.726562 19.164062 21.765625 19.167969 21.808594 19.171875 C 21.820312 19.171875 21.828125 19.175781 21.839844 19.175781 C 21.882812 19.179688 21.921875 19.179688 21.964844 19.179688 C 21.964844 19.179688 21.964844 19.179688 21.96875 19.179688 L 21.96875 21.550781 C 21.96875 22.578125 21.519531 23.550781 20.777344 24.226562 C 20.527344 24.449219 20.246094 24.644531 19.9375 24.792969 L 18.828125 25.332031 Z M 16.667969 28.328125 L 16.667969 27.636719 L 28.285156 27.636719 L 28.285156 28.328125 C 28.285156 28.386719 28.292969 28.445312 28.304688 28.5 L 26.742188 28.5 L 26.742188 28.609375 L 28.339844 28.609375 C 28.402344 28.78125 28.523438 28.925781 28.679688 29.015625 L 17.359375 29.015625 C 16.976562 29.015625 16.667969 28.707031 16.667969 28.328125 Z M 29.878906 28.429688 C 29.824219 28.769531 29.535156 29.015625 29.191406 29.015625 L 29.085938 29.015625 C 28.707031 29.015625 28.398438 28.707031 28.398438 28.328125 L 28.398438 27.523438 L 18.589844 27.523438 L 18.929688 25.410156 L 19.988281 24.894531 C 20.617188 24.589844 21.144531 24.113281 21.511719 23.523438 C 21.882812 22.929688 22.078125 22.25 22.078125 21.550781 L 22.078125 19.070312 L 22.023438 19.070312 C 22.023438 19.070312 22.023438 19.070312 22.019531 19.070312 C 21.980469 19.070312 21.941406 19.070312 21.898438 19.066406 C 21.890625 19.066406 21.878906 19.066406 21.867188 19.066406 C 21.828125 19.0625 21.792969 19.0625 21.753906 19.058594 C 21.753906 19.058594 21.75 19.054688 21.746094 19.054688 C 21.703125 19.050781 21.660156 19.046875 21.621094 19.039062 C 21.613281 19.039062 21.605469 19.035156 21.597656 19.035156 C 21.558594 19.027344 21.519531 19.023438 21.480469 19.011719 C 21.480469 19.011719 21.476562 19.011719 21.476562 19.011719 C 21.433594 19.003906 21.390625 18.992188 21.347656 18.980469 C 21.34375 18.980469 21.34375 18.980469 21.339844 18.976562 C 20.859375 18.84375 20.425781 18.570312 20.09375 18.1875 L 20.507812 15.636719 L 25.621094 15.636719 C 25.847656 15.636719 26.035156 15.449219 26.035156 15.222656 C 26.035156 15.054688 26.171875 14.917969 26.335938 14.917969 L 32.058594 14.917969 Z M 29.878906 28.429688 " fill-opacity="1" fill-rule="nonzero"/></g></svg>