<svg xmlns="http://www.w3.org/2000/svg" xmlns:xlink="http://www.w3.org/1999/xlink" width="60" zoomAndPan="magnify" viewBox="0 0 45 44.999999" height="60" preserveAspectRatio="xMidYMid meet" version="1.0"><defs><filter x="0%" y="0%" width="100%" height="100%" id="500089448e"><feColorMatrix values="0 0 0 0 1 0 0 0 0 1 0 0 0 0 1 0 0 0 1 0" color-interpolation-filters="sRGB"/></filter><mask id="e3b1d50196"><g filter="url(#500089448e)"><rect x="-4.5" width="54" fill="#000000" y="-4.5" height="53.999999" fill-opacity="0.15"/></g></mask><clipPath id="f4d160bfc7"><path d="M 0.0976562 0.691406 L 20.46875 0.691406 L 20.46875 21.0625 L 0.0976562 21.0625 Z M 0.0976562 0.691406 " clip-rule="nonzero"/></clipPath><clipPath id="dfc52ac700"><path d="M 10.28125 0.691406 C 4.660156 0.691406 0.0976562 5.253906 0.0976562 10.878906 C 0.0976562 16.503906 4.660156 21.0625 10.28125 21.0625 C 15.90625 21.0625 20.46875 16.503906 20.46875 10.878906 C 20.46875 5.253906 15.90625 0.691406 10.28125 0.691406 Z M 10.28125 0.691406 " clip-rule="nonzero"/></clipPath><clipPath id="f4aca13c6e"><rect x="0" width="21" y="0" height="22"/></clipPath><clipPath id="447be7287e"><path d="M 20.554688 13 L 24 13 L 24 28.683594 L 20.554688 28.683594 Z M 20.554688 13 " clip-rule="nonzero"/></clipPath><clipPath id="11501f4702"><path d="M 26 18 L 36.164062 18 L 36.164062 26 L 26 26 Z M 26 18 " clip-rule="nonzero"/></clipPath><clipPath id="d923704465"><path d="M 26 19 L 36.164062 19 L 36.164062 26 L 26 26 Z M 26 19 " clip-rule="nonzero"/></clipPath><clipPath id="8bb76864d2"><path d="M 29 18 L 36.164062 18 L 36.164062 23 L 29 23 Z M 29 18 " clip-rule="nonzero"/></clipPath><clipPath id="f416a2fd93"><path d="M 26 20 L 36.164062 20 L 36.164062 26 L 26 26 Z M 26 20 " clip-rule="nonzero"/></clipPath><clipPath id="624e127c2a"><path d="M 29 18 L 36.164062 18 L 36.164062 23 L 29 23 Z M 29 18 " clip-rule="nonzero"/></clipPath><clipPath id="f0c2c3e3a4"><path d="M 20.554688 12.933594 L 24 12.933594 L 24 28.683594 L 20.554688 28.683594 Z M 20.554688 12.933594 " clip-rule="nonzero"/></clipPath></defs><rect x="-4.5" width="54" fill="#ffffff" y="-4.5" height="53.999999" fill-opacity="1"/><rect x="-4.5" width="54" fill="#ffffff" y="-4.5" height="53.999999" fill-opacity="1"/><g mask="url(#e3b1d50196)"><g transform="matrix(1, 0, 0, 1, 11, 10)"><g clip-path="url(#f4aca13c6e)"><g clip-path="url(#f4d160bfc7)"><g clip-path="url(#dfc52ac700)"><path fill="#004aad" d="M 0.0976562 0.691406 L 20.46875 0.691406 L 20.46875 21.0625 L 0.0976562 21.0625 Z M 0.0976562 0.691406 " fill-opacity="1" fill-rule="nonzero"/></g></g></g></g></g><g clip-path="url(#447be7287e)"><path fill="#4361b1" d="M 23.753906 13.179688 L 20.800781 13.179688 L 20.800781 28.4375 L 23.753906 28.4375 Z M 23.753906 13.179688 " fill-opacity="1" fill-rule="nonzero"/></g><path fill="#5980ee" d="M 23.261719 13.671875 L 21.292969 13.671875 L 21.292969 27.945312 L 23.261719 27.945312 Z M 23.261719 13.671875 " fill-opacity="1" fill-rule="nonzero"/><path fill="#283640" d="M 21.785156 14.902344 L 21.785156 24.746094 C 21.785156 24.878906 21.832031 24.996094 21.925781 25.09375 C 22.023438 25.1875 22.140625 25.238281 22.277344 25.238281 C 22.410156 25.238281 22.527344 25.1875 22.625 25.09375 C 22.71875 24.996094 22.769531 24.878906 22.769531 24.746094 L 22.769531 14.902344 C 22.769531 14.765625 22.71875 14.648438 22.625 14.554688 C 22.527344 14.457031 22.410156 14.410156 22.277344 14.410156 C 22.140625 14.410156 22.023438 14.457031 21.925781 14.554688 C 21.832031 14.648438 21.785156 14.765625 21.785156 14.902344 Z M 21.785156 14.902344 " fill-opacity="1" fill-rule="nonzero"/><path fill="#202d35" d="M 21.785156 14.902344 L 21.785156 24.746094 C 21.785156 24.878906 21.832031 24.996094 21.929688 25.09375 C 22.023438 25.1875 22.140625 25.238281 22.277344 25.238281 L 22.277344 14.410156 C 22.140625 14.410156 22.023438 14.457031 21.929688 14.554688 C 21.832031 14.648438 21.785156 14.765625 21.785156 14.902344 Z M 21.785156 14.902344 " fill-opacity="1" fill-rule="nonzero"/><path fill="#8fc92f" d="M 29.90625 15.640625 L 21.785156 15.640625 L 21.785156 24.007812 L 29.90625 24.007812 Z M 29.90625 15.640625 " fill-opacity="1" fill-rule="nonzero"/><path fill="#6c9722" d="M 21.785156 16.132812 L 21.785156 23.515625 L 28.183594 23.515625 C 28.316406 23.515625 28.433594 23.464844 28.53125 23.371094 C 28.625 23.273438 28.671875 23.15625 28.675781 23.023438 C 28.675781 22.859375 28.757812 22.777344 28.921875 22.777344 C 29.054688 22.777344 29.171875 22.726562 29.269531 22.632812 C 29.363281 22.535156 29.410156 22.417969 29.414062 22.285156 L 29.414062 17.363281 C 29.410156 17.226562 29.363281 17.109375 29.269531 17.015625 C 29.171875 16.917969 29.054688 16.871094 28.921875 16.871094 C 28.757812 16.871094 28.675781 16.789062 28.675781 16.625 C 28.671875 16.488281 28.625 16.371094 28.53125 16.277344 C 28.433594 16.179688 28.316406 16.132812 28.183594 16.132812 Z M 21.785156 16.132812 " fill-opacity="1" fill-rule="nonzero"/><path fill="#6c9722" d="M 21.785156 16.625 L 21.785156 23.023438 L 28.183594 23.023438 C 28.183594 22.816406 28.253906 22.644531 28.398438 22.5 C 28.542969 22.355469 28.714844 22.285156 28.921875 22.285156 L 28.921875 17.363281 C 28.714844 17.363281 28.542969 17.289062 28.398438 17.144531 C 28.253906 17 28.183594 16.828125 28.183594 16.625 Z M 21.785156 16.625 " fill-opacity="1" fill-rule="nonzero"/><path fill="#8fc92f" d="M 22.277344 22.53125 L 27.792969 22.53125 C 27.921875 22.234375 28.132812 22.023438 28.429688 21.894531 L 28.429688 17.75 C 28.132812 17.621094 27.921875 17.410156 27.792969 17.117188 L 21.785156 17.117188 L 21.785156 16.625 L 28.183594 16.625 C 28.183594 16.828125 28.253906 17 28.398438 17.144531 C 28.542969 17.289062 28.714844 17.363281 28.921875 17.363281 L 28.921875 22.285156 C 28.714844 22.285156 28.542969 22.355469 28.398438 22.5 C 28.253906 22.644531 28.183594 22.816406 28.183594 23.023438 L 21.785156 23.023438 L 21.785156 22.53125 Z M 22.277344 22.53125 " fill-opacity="1" fill-rule="nonzero"/><path fill="#6c9722" d="M 21.785156 19.824219 C 21.785156 20.117188 21.839844 20.398438 21.953125 20.671875 C 22.0625 20.941406 22.222656 21.179688 22.433594 21.390625 C 22.640625 21.597656 22.878906 21.757812 23.152344 21.867188 C 23.421875 21.980469 23.703125 22.039062 24 22.039062 C 24.292969 22.039062 24.574219 21.980469 24.847656 21.867188 C 25.117188 21.757812 25.355469 21.597656 25.5625 21.390625 C 25.773438 21.179688 25.933594 20.941406 26.042969 20.671875 C 26.15625 20.398438 26.214844 20.117188 26.214844 19.824219 C 26.214844 19.527344 26.15625 19.246094 26.042969 18.976562 C 25.933594 18.703125 25.773438 18.464844 25.5625 18.257812 C 25.355469 18.050781 25.117188 17.890625 24.847656 17.777344 C 24.574219 17.664062 24.292969 17.609375 24 17.609375 C 23.703125 17.609375 23.421875 17.664062 23.152344 17.777344 C 22.878906 17.890625 22.640625 18.050781 22.433594 18.257812 C 22.222656 18.464844 22.0625 18.703125 21.953125 18.976562 C 21.839844 19.246094 21.785156 19.527344 21.785156 19.824219 Z M 21.785156 19.824219 " fill-opacity="1" fill-rule="nonzero"/><path fill="#8fc92f" d="M 22.277344 19.824219 C 22.277344 20.050781 22.320312 20.269531 22.40625 20.480469 C 22.492188 20.691406 22.617188 20.878906 22.78125 21.039062 C 22.941406 21.203125 23.128906 21.328125 23.339844 21.414062 C 23.550781 21.5 23.769531 21.546875 24 21.546875 C 24.226562 21.546875 24.445312 21.5 24.65625 21.414062 C 24.867188 21.328125 25.054688 21.203125 25.214844 21.039062 C 25.378906 20.878906 25.503906 20.691406 25.589844 20.480469 C 25.675781 20.269531 25.722656 20.050781 25.722656 19.824219 C 25.722656 19.59375 25.675781 19.375 25.589844 19.164062 C 25.503906 18.953125 25.378906 18.765625 25.214844 18.605469 C 25.054688 18.441406 24.867188 18.320312 24.65625 18.230469 C 24.445312 18.144531 24.226562 18.101562 24 18.101562 C 23.769531 18.101562 23.550781 18.144531 23.339844 18.230469 C 23.128906 18.320312 22.941406 18.441406 22.78125 18.605469 C 22.617188 18.765625 22.492188 18.953125 22.40625 19.164062 C 22.320312 19.375 22.277344 19.59375 22.277344 19.824219 Z M 22.277344 19.824219 " fill-opacity="1" fill-rule="nonzero"/><path fill="#6c9722" d="M 24 19.824219 C 24.164062 19.824219 24.246094 19.742188 24.246094 19.578125 C 24.246094 19.414062 24.164062 19.332031 24 19.332031 C 23.835938 19.332031 23.753906 19.414062 23.753906 19.578125 C 23.753906 19.742188 23.671875 19.824219 23.507812 19.824219 C 23.34375 19.824219 23.261719 19.742188 23.261719 19.578125 C 23.261719 19.421875 23.304688 19.277344 23.394531 19.152344 C 23.488281 19.023438 23.605469 18.9375 23.753906 18.882812 L 23.753906 18.839844 C 23.753906 18.675781 23.835938 18.59375 24 18.59375 C 24.164062 18.59375 24.246094 18.675781 24.246094 18.839844 L 24.246094 18.882812 C 24.414062 18.941406 24.542969 19.050781 24.632812 19.207031 C 24.726562 19.359375 24.757812 19.527344 24.726562 19.703125 C 24.695312 19.878906 24.609375 20.027344 24.472656 20.140625 C 24.335938 20.257812 24.179688 20.316406 24 20.316406 C 23.835938 20.316406 23.753906 20.398438 23.753906 20.5625 C 23.753906 20.726562 23.835938 20.808594 24 20.808594 C 24.164062 20.808594 24.246094 20.726562 24.246094 20.5625 C 24.246094 20.398438 24.328125 20.316406 24.492188 20.316406 C 24.65625 20.316406 24.738281 20.398438 24.738281 20.5625 C 24.734375 20.71875 24.691406 20.859375 24.601562 20.984375 C 24.511719 21.113281 24.390625 21.203125 24.246094 21.253906 L 24.246094 21.300781 C 24.246094 21.464844 24.164062 21.546875 24 21.546875 C 23.835938 21.546875 23.753906 21.464844 23.753906 21.300781 L 23.753906 21.253906 C 23.582031 21.195312 23.453125 21.085938 23.363281 20.933594 C 23.269531 20.777344 23.242188 20.613281 23.269531 20.433594 C 23.300781 20.257812 23.386719 20.109375 23.523438 19.996094 C 23.660156 19.878906 23.820312 19.824219 24 19.824219 Z M 24 19.824219 " fill-opacity="1" fill-rule="nonzero"/><g clip-path="url(#11501f4702)"><path fill="#fdebdb" d="M 26.707031 21.054688 C 26.707031 21.257812 26.777344 21.429688 26.921875 21.574219 C 27.066406 21.71875 27.238281 21.792969 27.445312 21.792969 L 28.675781 21.792969 C 29.21875 21.792969 29.660156 22.121094 29.660156 22.53125 C 29.660156 24.027344 31.203125 25.238281 33.105469 25.238281 L 36.304688 25.238281 L 36.304688 22.039062 L 35.320312 22.039062 C 35.195312 22.035156 35.070312 22.023438 34.949219 22 C 34.523438 21.902344 34.171875 21.6875 33.894531 21.351562 C 33.660156 21.0625 33.539062 20.679688 33.332031 20.367188 C 33.128906 20.050781 32.878906 19.769531 32.585938 19.535156 C 32.007812 19.101562 31.363281 18.867188 30.644531 18.839844 L 29.90625 18.839844 L 29.90625 20.316406 L 27.445312 20.316406 C 27.238281 20.316406 27.066406 20.386719 26.921875 20.53125 C 26.777344 20.675781 26.707031 20.847656 26.707031 21.054688 Z M 26.707031 21.054688 " fill-opacity="1" fill-rule="nonzero"/></g><g clip-path="url(#d923704465)"><path fill="#f0b2a3" d="M 26.707031 21.054688 C 26.707031 21.257812 26.777344 21.429688 26.921875 21.574219 C 27.066406 21.71875 27.238281 21.792969 27.445312 21.792969 L 28.675781 21.792969 C 29.21875 21.792969 29.660156 22.121094 29.660156 22.53125 C 29.660156 24.027344 31.203125 25.238281 33.105469 25.238281 L 36.304688 25.238281 L 36.304688 24.746094 L 33.105469 24.746094 C 31.472656 24.746094 30.152344 23.75 30.152344 22.53125 C 30.152344 21.839844 29.5 21.300781 28.675781 21.300781 L 27.445312 21.300781 C 27.28125 21.300781 27.199219 21.21875 27.199219 21.054688 C 27.199219 20.890625 27.28125 20.808594 27.445312 20.808594 L 29.90625 20.808594 C 30.527344 20.808594 30.949219 21.039062 31.1875 21.519531 C 31.25 21.636719 31.34375 21.714844 31.472656 21.753906 C 31.597656 21.796875 31.71875 21.785156 31.839844 21.726562 C 31.957031 21.667969 32.039062 21.574219 32.085938 21.449219 C 32.128906 21.324219 32.125 21.199219 32.066406 21.082031 C 31.660156 20.269531 30.894531 19.824219 29.90625 19.824219 L 29.90625 20.316406 L 27.445312 20.316406 C 27.238281 20.316406 27.066406 20.386719 26.921875 20.53125 C 26.777344 20.675781 26.707031 20.847656 26.707031 21.054688 Z M 26.707031 21.054688 " fill-opacity="1" fill-rule="nonzero"/></g><g clip-path="url(#8bb76864d2)"><path fill="#f0b2a3" d="M 29.90625 18.839844 L 29.90625 19.332031 L 30.628906 19.332031 C 31.242188 19.359375 31.792969 19.554688 32.28125 19.921875 C 32.535156 20.125 32.75 20.363281 32.921875 20.636719 C 32.996094 20.757812 33.0625 20.878906 33.121094 21.007812 C 33.226562 21.242188 33.359375 21.460938 33.515625 21.664062 C 33.863281 22.089844 34.308594 22.359375 34.84375 22.476562 C 35 22.511719 35.160156 22.53125 35.320312 22.53125 L 36.304688 22.53125 L 36.304688 22.039062 L 35.320312 22.039062 C 35.195312 22.035156 35.070312 22.023438 34.949219 22 C 34.523438 21.902344 34.171875 21.6875 33.894531 21.351562 C 33.660156 21.0625 33.539062 20.679688 33.332031 20.367188 C 33.128906 20.050781 32.878906 19.769531 32.585938 19.535156 C 32.007812 19.101562 31.363281 18.867188 30.644531 18.839844 Z M 29.90625 18.839844 " fill-opacity="1" fill-rule="nonzero"/></g><g clip-path="url(#f416a2fd93)"><path fill="#222325" d="M 33.105469 25.484375 L 36.058594 25.484375 C 36.222656 25.484375 36.304688 25.402344 36.304688 25.238281 C 36.304688 25.074219 36.222656 24.992188 36.058594 24.992188 L 33.105469 24.992188 C 31.339844 24.992188 29.90625 23.886719 29.90625 22.53125 C 29.90625 21.988281 29.351562 21.546875 28.675781 21.546875 L 27.445312 21.546875 C 27.308594 21.546875 27.191406 21.496094 27.09375 21.402344 C 27 21.304688 26.953125 21.1875 26.953125 21.054688 C 26.953125 20.917969 27 20.800781 27.09375 20.707031 C 27.191406 20.609375 27.308594 20.5625 27.445312 20.5625 L 29.90625 20.5625 C 30.621094 20.5625 31.125 20.847656 31.40625 21.410156 C 31.480469 21.554688 31.589844 21.59375 31.734375 21.519531 C 31.882812 21.445312 31.917969 21.335938 31.847656 21.1875 C 31.589844 20.679688 31.046875 20.070312 29.90625 20.070312 L 27.445312 20.070312 C 27.171875 20.070312 26.941406 20.164062 26.746094 20.355469 C 26.554688 20.550781 26.460938 20.78125 26.460938 21.054688 C 26.460938 21.324219 26.554688 21.558594 26.746094 21.75 C 26.941406 21.941406 27.171875 22.039062 27.445312 22.039062 L 28.675781 22.039062 C 29.074219 22.039062 29.414062 22.261719 29.414062 22.53125 C 29.414062 24.15625 31.066406 25.484375 33.105469 25.484375 Z M 33.105469 25.484375 " fill-opacity="1" fill-rule="nonzero"/></g><g clip-path="url(#624e127c2a)"><path fill="#222325" d="M 35.320312 22.285156 L 36.058594 22.285156 C 36.222656 22.285156 36.304688 22.203125 36.304688 22.039062 C 36.304688 21.875 36.222656 21.792969 36.058594 21.792969 L 35.320312 21.792969 C 35.210938 21.792969 35.105469 21.78125 35 21.757812 C 34.632812 21.675781 34.328125 21.488281 34.089844 21.195312 C 33.96875 21.035156 33.867188 20.859375 33.78125 20.675781 C 33.710938 20.523438 33.628906 20.375 33.539062 20.234375 C 33.320312 19.890625 33.054688 19.59375 32.734375 19.339844 C 32.121094 18.875 31.425781 18.625 30.65625 18.59375 L 29.90625 18.59375 C 29.742188 18.59375 29.660156 18.675781 29.660156 18.839844 C 29.660156 19.003906 29.742188 19.085938 29.90625 19.085938 L 30.644531 19.085938 C 31.304688 19.113281 31.902344 19.328125 32.433594 19.730469 C 32.707031 19.949219 32.9375 20.207031 33.128906 20.503906 C 33.207031 20.628906 33.277344 20.761719 33.34375 20.894531 C 33.441406 21.113281 33.5625 21.316406 33.707031 21.507812 C 34.019531 21.886719 34.414062 22.132812 34.898438 22.238281 C 35.035156 22.269531 35.175781 22.285156 35.320312 22.285156 Z M 35.320312 22.285156 " fill-opacity="1" fill-rule="nonzero"/></g><path fill="#e6e4df" d="M 24 21.054688 C 24.203125 21.054688 24.375 20.980469 24.519531 20.835938 C 24.664062 20.691406 24.738281 20.519531 24.738281 20.316406 C 24.738281 20.152344 24.65625 20.070312 24.492188 20.070312 C 24.328125 20.070312 24.246094 20.152344 24.246094 20.316406 C 24.246094 20.480469 24.164062 20.5625 24 20.5625 C 23.835938 20.5625 23.753906 20.480469 23.753906 20.316406 C 23.753906 20.152344 23.835938 20.070312 24 20.070312 C 24.203125 20.070312 24.375 19.996094 24.519531 19.851562 C 24.664062 19.707031 24.738281 19.535156 24.738281 19.332031 C 24.738281 19.125 24.664062 18.953125 24.519531 18.808594 C 24.375 18.664062 24.203125 18.59375 24 18.59375 C 23.792969 18.59375 23.621094 18.664062 23.476562 18.808594 C 23.332031 18.953125 23.261719 19.125 23.261719 19.332031 C 23.261719 19.496094 23.34375 19.578125 23.507812 19.578125 C 23.671875 19.578125 23.753906 19.496094 23.753906 19.332031 C 23.753906 19.167969 23.835938 19.085938 24 19.085938 C 24.164062 19.085938 24.246094 19.167969 24.246094 19.332031 C 24.246094 19.496094 24.164062 19.578125 24 19.578125 C 23.792969 19.578125 23.621094 19.648438 23.476562 19.792969 C 23.332031 19.9375 23.261719 20.109375 23.261719 20.316406 C 23.261719 20.519531 23.332031 20.691406 23.476562 20.835938 C 23.621094 20.980469 23.792969 21.054688 24 21.054688 Z M 24 21.054688 " fill-opacity="1" fill-rule="nonzero"/><path fill="#e6e4df" d="M 24 19.085938 C 24.164062 19.085938 24.246094 19.003906 24.246094 18.839844 L 24.246094 18.59375 C 24.246094 18.429688 24.164062 18.347656 24 18.347656 C 23.835938 18.347656 23.753906 18.429688 23.753906 18.59375 L 23.753906 18.839844 C 23.753906 19.003906 23.835938 19.085938 24 19.085938 Z M 24 19.085938 " fill-opacity="1" fill-rule="nonzero"/><path fill="#e6e4df" d="M 24 21.300781 C 24.164062 21.300781 24.246094 21.21875 24.246094 21.054688 L 24.246094 20.808594 C 24.246094 20.644531 24.164062 20.5625 24 20.5625 C 23.835938 20.5625 23.753906 20.644531 23.753906 20.808594 L 23.753906 21.054688 C 23.753906 21.21875 23.835938 21.300781 24 21.300781 Z M 24 21.300781 " fill-opacity="1" fill-rule="nonzero"/><path fill="#222325" d="M 21.785156 23.269531 L 28.183594 23.269531 C 28.347656 23.269531 28.429688 23.1875 28.429688 23.023438 C 28.429688 22.886719 28.476562 22.769531 28.570312 22.675781 C 28.667969 22.578125 28.785156 22.53125 28.921875 22.53125 C 29.085938 22.53125 29.167969 22.449219 29.167969 22.285156 L 29.167969 22.039062 C 29.167969 21.875 29.085938 21.792969 28.921875 21.792969 C 28.757812 21.792969 28.675781 21.875 28.675781 22.039062 L 28.675781 22.070312 C 28.300781 22.164062 28.0625 22.402344 27.964844 22.777344 L 22.03125 22.777344 L 22.03125 16.871094 L 27.964844 16.871094 C 28.0625 17.242188 28.300781 17.480469 28.675781 17.578125 L 28.675781 20.316406 C 28.675781 20.480469 28.757812 20.5625 28.921875 20.5625 C 29.085938 20.5625 29.167969 20.480469 29.167969 20.316406 L 29.167969 17.363281 C 29.167969 17.199219 29.085938 17.117188 28.921875 17.117188 C 28.785156 17.117188 28.667969 17.066406 28.570312 16.972656 C 28.476562 16.875 28.429688 16.757812 28.429688 16.625 C 28.429688 16.460938 28.347656 16.378906 28.183594 16.378906 L 21.785156 16.378906 C 21.621094 16.378906 21.539062 16.460938 21.539062 16.625 L 21.539062 23.023438 C 21.539062 23.1875 21.621094 23.269531 21.785156 23.269531 Z M 21.785156 23.269531 " fill-opacity="1" fill-rule="nonzero"/><path fill="#222325" d="M 21.785156 24.253906 L 29.90625 24.253906 C 30.070312 24.253906 30.152344 24.171875 30.152344 24.007812 L 30.152344 23.515625 L 29.660156 23.515625 L 29.660156 23.761719 L 22.03125 23.761719 L 22.03125 15.886719 L 29.660156 15.886719 L 29.660156 20.316406 L 30.152344 20.316406 L 30.152344 15.640625 C 30.152344 15.476562 30.070312 15.394531 29.90625 15.394531 L 21.785156 15.394531 C 21.621094 15.394531 21.539062 15.476562 21.539062 15.640625 L 21.539062 24.007812 C 21.539062 24.171875 21.621094 24.253906 21.785156 24.253906 Z M 21.785156 24.253906 " fill-opacity="1" fill-rule="nonzero"/><path fill="#222325" d="M 24 22.285156 C 24.324219 22.285156 24.636719 22.222656 24.941406 22.097656 C 25.242188 21.972656 25.507812 21.792969 25.738281 21.5625 C 25.96875 21.332031 26.148438 21.066406 26.273438 20.765625 C 26.398438 20.464844 26.460938 20.148438 26.460938 19.824219 C 26.460938 19.496094 26.398438 19.183594 26.273438 18.882812 C 26.148438 18.578125 25.96875 18.3125 25.738281 18.082031 C 25.507812 17.851562 25.242188 17.675781 24.941406 17.550781 C 24.636719 17.425781 24.324219 17.363281 24 17.363281 C 23.671875 17.363281 23.359375 17.425781 23.054688 17.550781 C 22.753906 17.675781 22.488281 17.851562 22.257812 18.082031 C 22.027344 18.3125 21.847656 18.578125 21.722656 18.882812 C 21.601562 19.183594 21.539062 19.496094 21.539062 19.824219 C 21.539062 20.148438 21.601562 20.460938 21.726562 20.765625 C 21.851562 21.066406 22.027344 21.332031 22.257812 21.5625 C 22.488281 21.792969 22.753906 21.96875 23.058594 22.09375 C 23.359375 22.21875 23.671875 22.285156 24 22.285156 Z M 24 17.855469 C 24.257812 17.855469 24.511719 17.902344 24.75 18.003906 C 24.992188 18.105469 25.207031 18.246094 25.390625 18.429688 C 25.574219 18.613281 25.71875 18.828125 25.816406 19.070312 C 25.917969 19.308594 25.96875 19.5625 25.96875 19.824219 C 25.96875 20.082031 25.917969 20.335938 25.816406 20.574219 C 25.71875 20.816406 25.574219 21.03125 25.390625 21.214844 C 25.207031 21.398438 24.992188 21.542969 24.75 21.640625 C 24.511719 21.742188 24.257812 21.792969 24 21.792969 C 23.738281 21.792969 23.484375 21.742188 23.246094 21.640625 C 23.003906 21.542969 22.789062 21.398438 22.605469 21.214844 C 22.421875 21.03125 22.277344 20.816406 22.179688 20.574219 C 22.078125 20.335938 22.03125 20.082031 22.03125 19.824219 C 22.03125 19.5625 22.078125 19.3125 22.179688 19.070312 C 22.28125 18.828125 22.421875 18.617188 22.605469 18.429688 C 22.792969 18.246094 23.003906 18.105469 23.246094 18.003906 C 23.484375 17.90625 23.738281 17.855469 24 17.855469 Z M 24 17.855469 " fill-opacity="1" fill-rule="nonzero"/><path fill="#222325" d="M 22.277344 25.484375 C 22.480469 25.484375 22.652344 25.410156 22.796875 25.265625 C 22.941406 25.121094 23.015625 24.949219 23.015625 24.746094 L 23.015625 24.007812 C 23.015625 23.84375 22.933594 23.761719 22.769531 23.761719 C 22.605469 23.761719 22.523438 23.84375 22.523438 24.007812 L 22.523438 24.746094 C 22.523438 24.910156 22.441406 24.992188 22.277344 24.992188 C 22.113281 24.992188 22.03125 24.910156 22.03125 24.746094 L 22.03125 14.902344 C 22.03125 14.738281 22.113281 14.65625 22.277344 14.65625 C 22.441406 14.65625 22.523438 14.738281 22.523438 14.902344 L 22.523438 15.640625 C 22.523438 15.804688 22.605469 15.886719 22.769531 15.886719 C 22.933594 15.886719 23.015625 15.804688 23.015625 15.640625 L 23.015625 14.902344 C 23.015625 14.695312 22.941406 14.523438 22.796875 14.378906 C 22.652344 14.234375 22.480469 14.164062 22.277344 14.164062 C 22.070312 14.164062 21.898438 14.234375 21.753906 14.378906 C 21.609375 14.523438 21.539062 14.695312 21.539062 14.902344 L 21.539062 24.746094 C 21.539062 24.949219 21.609375 25.121094 21.753906 25.265625 C 21.898438 25.410156 22.070312 25.484375 22.277344 25.484375 Z M 22.277344 25.484375 " fill-opacity="1" fill-rule="nonzero"/><g clip-path="url(#f0c2c3e3a4)"><path fill="#222325" d="M 20.800781 28.683594 L 23.753906 28.683594 C 23.917969 28.683594 24 28.601562 24 28.4375 L 24 24.007812 C 24 23.84375 23.917969 23.761719 23.753906 23.761719 C 23.589844 23.761719 23.507812 23.84375 23.507812 24.007812 L 23.507812 28.191406 L 21.046875 28.191406 L 21.046875 13.425781 L 23.507812 13.425781 L 23.507812 15.640625 C 23.507812 15.804688 23.589844 15.886719 23.753906 15.886719 C 23.917969 15.886719 24 15.804688 24 15.640625 L 24 13.179688 C 24 13.015625 23.917969 12.933594 23.753906 12.933594 L 20.800781 12.933594 C 20.636719 12.933594 20.554688 13.015625 20.554688 13.179688 L 20.554688 28.4375 C 20.554688 28.601562 20.636719 28.683594 20.800781 28.683594 Z M 20.800781 28.683594 " fill-opacity="1" fill-rule="nonzero"/></g></svg>