<svg xmlns="http://www.w3.org/2000/svg" xmlns:xlink="http://www.w3.org/1999/xlink" width="60" zoomAndPan="magnify" viewBox="0 0 45 44.999999" height="60" preserveAspectRatio="xMidYMid meet" version="1.0"><defs><filter x="0%" y="0%" width="100%" height="100%" id="6b39721839"><feColorMatrix values="0 0 0 0 1 0 0 0 0 1 0 0 0 0 1 0 0 0 1 0" color-interpolation-filters="sRGB"/></filter><mask id="13abc63734"><g filter="url(#6b39721839)"><rect x="-4.5" width="54" fill="#000000" y="-4.5" height="53.999999" fill-opacity="0.15"/></g></mask><clipPath id="7ac5b79a99"><path d="M 0.0976562 0.691406 L 20.46875 0.691406 L 20.46875 21.0625 L 0.0976562 21.0625 Z M 0.0976562 0.691406 " clip-rule="nonzero"/></clipPath><clipPath id="334a49369f"><path d="M 10.28125 0.691406 C 4.660156 0.691406 0.0976562 5.253906 0.0976562 10.878906 C 0.0976562 16.503906 4.660156 21.0625 10.28125 21.0625 C 15.90625 21.0625 20.46875 16.503906 20.46875 10.878906 C 20.46875 5.253906 15.90625 0.691406 10.28125 0.691406 Z M 10.28125 0.691406 " clip-rule="nonzero"/></clipPath><clipPath id="dbffeeb7de"><rect x="0" width="21" y="0" height="22"/></clipPath><clipPath id="2abff94051"><path d="M 17.925781 12.230469 L 32 12.230469 L 32 29.480469 L 17.925781 29.480469 Z M 17.925781 12.230469 " clip-rule="nonzero"/></clipPath><clipPath id="da7cad0714"><path d="M 29 24 L 35.175781 24 L 35.175781 29.480469 L 29 29.480469 Z M 29 24 " clip-rule="nonzero"/></clipPath><clipPath id="224d540133"><path d="M 27 12.230469 L 32 12.230469 L 32 17 L 27 17 Z M 27 12.230469 " clip-rule="nonzero"/></clipPath></defs><rect x="-4.5" width="54" fill="#ffffff" y="-4.5" height="53.999999" fill-opacity="1"/><rect x="-4.5" width="54" fill="#ffffff" y="-4.5" height="53.999999" fill-opacity="1"/><g mask="url(#13abc63734)"><g transform="matrix(1, 0, 0, 1, 11, 10)"><g clip-path="url(#dbffeeb7de)"><g clip-path="url(#7ac5b79a99)"><g clip-path="url(#334a49369f)"><path fill="#004aad" d="M 0.0976562 0.691406 L 20.46875 0.691406 L 20.46875 21.0625 L 0.0976562 21.0625 Z M 0.0976562 0.691406 " fill-opacity="1" fill-rule="nonzero"/></g></g></g></g></g><g clip-path="url(#2abff94051)"><path fill="#eeefee" d="M 31.25 15.898438 C 31.246094 15.890625 31.246094 15.878906 31.242188 15.871094 C 31.234375 15.851562 31.21875 15.835938 31.210938 15.820312 C 31.199219 15.804688 31.1875 15.785156 31.175781 15.769531 C 31.171875 15.769531 31.171875 15.765625 31.167969 15.765625 L 27.722656 12.316406 C 27.667969 12.261719 27.589844 12.230469 27.511719 12.230469 L 19.4375 12.230469 C 18.617188 12.230469 17.953125 12.894531 17.953125 13.710938 L 17.953125 27.953125 C 17.953125 28.773438 18.617188 29.4375 19.4375 29.4375 L 29.78125 29.4375 C 30.601562 29.4375 31.265625 28.773438 31.265625 27.953125 L 31.265625 15.992188 C 31.265625 15.988281 31.265625 15.984375 31.265625 15.984375 C 31.269531 15.957031 31.257812 15.925781 31.25 15.898438 Z M 31.25 15.898438 " fill-opacity="1" fill-rule="nonzero"/></g><g clip-path="url(#da7cad0714)"><path fill="#575b6d" d="M 34.667969 27.273438 C 34.636719 27.242188 34.605469 27.210938 34.566406 27.183594 L 31.039062 24.234375 C 31.039062 24.234375 31.035156 24.234375 31.03125 24.230469 C 31.027344 24.226562 31.027344 24.226562 31.027344 24.222656 C 31.015625 24.21875 31.003906 24.214844 30.996094 24.210938 C 30.972656 24.199219 30.949219 24.183594 30.925781 24.175781 C 30.917969 24.171875 30.910156 24.175781 30.902344 24.171875 C 30.871094 24.167969 30.84375 24.164062 30.808594 24.171875 C 30.804688 24.171875 30.800781 24.171875 30.792969 24.171875 C 30.761719 24.179688 30.730469 24.191406 30.703125 24.207031 C 30.695312 24.210938 30.695312 24.210938 30.691406 24.214844 C 30.667969 24.230469 30.644531 24.246094 30.625 24.269531 C 30.621094 24.273438 30.621094 24.28125 30.617188 24.285156 C 30.617188 24.285156 30.613281 24.285156 30.613281 24.285156 C 30.507812 24.429688 30.390625 24.570312 30.253906 24.707031 C 30.125 24.839844 29.980469 24.960938 29.820312 25.074219 C 29.816406 25.074219 29.816406 25.082031 29.808594 25.085938 C 29.804688 25.085938 29.804688 25.085938 29.800781 25.089844 C 29.792969 25.097656 29.785156 25.109375 29.78125 25.117188 C 29.761719 25.136719 29.746094 25.152344 29.734375 25.171875 C 29.730469 25.183594 29.722656 25.199219 29.71875 25.214844 C 29.710938 25.234375 29.707031 25.257812 29.703125 25.28125 C 29.699219 25.296875 29.703125 25.308594 29.703125 25.328125 C 29.703125 25.347656 29.703125 25.371094 29.707031 25.394531 C 29.710938 25.410156 29.722656 25.425781 29.730469 25.441406 C 29.734375 25.457031 29.738281 25.472656 29.75 25.484375 C 29.753906 25.488281 29.757812 25.492188 29.757812 25.492188 C 29.761719 25.496094 29.761719 25.503906 29.765625 25.503906 L 32.707031 29.027344 C 32.941406 29.316406 33.289062 29.496094 33.660156 29.515625 C 33.683594 29.515625 33.707031 29.519531 33.730469 29.519531 C 34.078125 29.519531 34.417969 29.378906 34.664062 29.132812 C 35.179688 28.625 35.179688 27.789062 34.667969 27.273438 Z M 34.667969 27.273438 " fill-opacity="1" fill-rule="nonzero"/></g><g clip-path="url(#224d540133)"><path fill="#004aad" d="M 31.25 15.917969 C 31.25 15.902344 31.25 15.882812 31.238281 15.871094 C 31.234375 15.855469 31.222656 15.84375 31.214844 15.832031 C 31.199219 15.808594 31.1875 15.789062 31.171875 15.769531 C 31.167969 15.769531 31.167969 15.769531 31.167969 15.765625 L 27.722656 12.316406 C 27.667969 12.261719 27.59375 12.230469 27.511719 12.230469 C 27.425781 12.230469 27.347656 12.265625 27.292969 12.328125 C 27.246094 12.378906 27.214844 12.449219 27.214844 12.527344 L 27.214844 15.984375 C 27.214844 16.148438 27.347656 16.28125 27.511719 16.28125 L 30.964844 16.28125 C 30.964844 16.28125 30.96875 16.28125 30.96875 16.28125 C 31.132812 16.28125 31.265625 16.148438 31.265625 15.984375 C 31.269531 15.960938 31.257812 15.9375 31.25 15.917969 Z M 31.25 15.917969 " fill-opacity="1" fill-rule="nonzero"/></g><path fill="#004aad" d="M 20.59375 18.011719 L 24.609375 18.011719 C 24.773438 18.011719 24.90625 17.878906 24.90625 17.714844 C 24.90625 17.550781 24.773438 17.417969 24.609375 17.417969 L 20.59375 17.417969 C 20.429688 17.417969 20.296875 17.550781 20.296875 17.714844 C 20.296875 17.878906 20.429688 18.011719 20.59375 18.011719 Z M 20.59375 18.011719 " fill-opacity="1" fill-rule="nonzero"/><path fill="#004aad" d="M 20.59375 19.988281 L 25.242188 19.988281 C 25.40625 19.988281 25.539062 19.855469 25.539062 19.691406 C 25.539062 19.527344 25.40625 19.394531 25.242188 19.394531 L 20.59375 19.394531 C 20.429688 19.394531 20.296875 19.527344 20.296875 19.691406 C 20.296875 19.855469 20.429688 19.988281 20.59375 19.988281 Z M 20.59375 19.988281 " fill-opacity="1" fill-rule="nonzero"/><path fill="#004aad" d="M 20.59375 21.964844 L 24.210938 21.964844 C 24.375 21.964844 24.507812 21.828125 24.507812 21.667969 C 24.507812 21.503906 24.375 21.371094 24.210938 21.371094 L 20.59375 21.371094 C 20.429688 21.371094 20.296875 21.503906 20.296875 21.667969 C 20.296875 21.828125 20.429688 21.964844 20.59375 21.964844 Z M 20.59375 21.964844 " fill-opacity="1" fill-rule="nonzero"/><path fill="#004aad" d="M 20.59375 23.9375 L 24.402344 23.9375 C 24.566406 23.9375 24.699219 23.804688 24.699219 23.640625 C 24.699219 23.476562 24.566406 23.34375 24.402344 23.34375 L 20.59375 23.34375 C 20.429688 23.34375 20.296875 23.476562 20.296875 23.640625 C 20.296875 23.804688 20.429688 23.9375 20.59375 23.9375 Z M 20.59375 23.9375 " fill-opacity="1" fill-rule="nonzero"/><path fill="#004aad" d="M 26.195312 25.320312 L 20.59375 25.320312 C 20.429688 25.320312 20.296875 25.453125 20.296875 25.617188 C 20.296875 25.777344 20.429688 25.914062 20.59375 25.914062 L 26.195312 25.914062 C 26.359375 25.914062 26.492188 25.777344 26.492188 25.617188 C 26.492188 25.453125 26.359375 25.320312 26.195312 25.320312 Z M 26.195312 25.320312 " fill-opacity="1" fill-rule="nonzero"/><path fill="#d9d9d9" d="M 30.671875 19.484375 C 29.917969 18.730469 28.917969 18.316406 27.847656 18.316406 C 26.785156 18.316406 25.78125 18.730469 25.023438 19.484375 C 23.464844 21.042969 23.464844 23.574219 25.023438 25.132812 C 25.800781 25.910156 26.824219 26.300781 27.847656 26.300781 C 28.871094 26.300781 29.894531 25.914062 30.671875 25.132812 C 32.230469 23.574219 32.230469 21.039062 30.671875 19.484375 Z M 30.671875 19.484375 " fill-opacity="1" fill-rule="nonzero"/></svg>